<mxfile host="app.diagrams.net" agent="Mozilla/5.0 (Windows NT 10.0; Win64; x64) AppleWebKit/537.36 (KHTML, like Gecko) Chrome/129.0.0.0 Safari/537.36" version="24.7.16">
  <diagram name="Page-1" id="iBzll_yCNkqX4cB_IOf_">
    <mxGraphModel dx="-5333" dy="-1493" grid="1" gridSize="10" guides="1" tooltips="1" connect="1" arrows="1" fold="1" page="1" pageScale="1" pageWidth="3100" pageHeight="2000" math="0" shadow="0">
      <root>
        <mxCell id="0" />
        <mxCell id="1" parent="0" />
        <mxCell id="9kD-dyZorlcXehqhK6V_-3" value="" style="endArrow=none;dashed=1;html=1;rounded=0;" parent="1" edge="1">
          <mxGeometry width="50" height="50" relative="1" as="geometry">
            <mxPoint x="6330" y="3120" as="sourcePoint" />
            <mxPoint x="9050" y="3120" as="targetPoint" />
          </mxGeometry>
        </mxCell>
        <mxCell id="9kD-dyZorlcXehqhK6V_-4" value="" style="rounded=1;whiteSpace=wrap;html=1;arcSize=15;" parent="1" vertex="1">
          <mxGeometry x="6400" y="3280" width="1000" height="1180" as="geometry" />
        </mxCell>
        <mxCell id="9kD-dyZorlcXehqhK6V_-5" value="&lt;b&gt;&lt;i&gt;CarPart&lt;/i&gt;&lt;/b&gt;" style="html=1;whiteSpace=wrap;" parent="1" vertex="1">
          <mxGeometry x="6990" y="3533" width="110" height="50" as="geometry" />
        </mxCell>
        <mxCell id="9kD-dyZorlcXehqhK6V_-6" value="" style="endArrow=none;html=1;rounded=0;entryX=0.79;entryY=0.846;entryDx=0;entryDy=0;entryPerimeter=0;exitX=0.04;exitY=0.846;exitDx=0;exitDy=0;exitPerimeter=0;" parent="1" edge="1">
          <mxGeometry width="50" height="50" relative="1" as="geometry">
            <mxPoint x="6444" y="3359.08" as="sourcePoint" />
            <mxPoint x="7356" y="3359" as="targetPoint" />
          </mxGeometry>
        </mxCell>
        <mxCell id="9kD-dyZorlcXehqhK6V_-7" value="&lt;b&gt;ECar&lt;/b&gt;" style="html=1;whiteSpace=wrap;" parent="1" vertex="1">
          <mxGeometry x="6700" y="3533" width="110" height="50" as="geometry" />
        </mxCell>
        <mxCell id="9kD-dyZorlcXehqhK6V_-8" value="&lt;p style=&quot;margin:0px;margin-top:4px;text-align:center;&quot;&gt;&lt;/p&gt;&lt;div style=&quot;height:2px;&quot;&gt;&lt;/div&gt;&lt;span style=&quot;font-weight: 700;&quot;&gt;&lt;div style=&quot;text-align: center;&quot;&gt;&lt;span style=&quot;background-color: initial;&quot;&gt;&amp;nbsp;&lt;i&gt;Product&lt;/i&gt;&lt;/span&gt;&lt;/div&gt;&lt;/span&gt;&lt;hr size=&quot;1&quot; style=&quot;border-style:solid;&quot;&gt;&lt;div style=&quot;height:2px;&quot;&gt;&lt;div style=&quot;height: 2px;&quot;&gt;&amp;nbsp;maker: String&lt;/div&gt;&lt;div style=&quot;height: 2px;&quot;&gt;&lt;br&gt;&lt;/div&gt;&lt;div style=&quot;height: 2px;&quot;&gt;&lt;br&gt;&lt;/div&gt;&lt;div style=&quot;height: 2px;&quot;&gt;&lt;br&gt;&lt;/div&gt;&lt;div style=&quot;height: 2px;&quot;&gt;&lt;br&gt;&lt;/div&gt;&lt;div style=&quot;height: 2px;&quot;&gt;&amp;nbsp;&lt;/div&gt;&lt;div style=&quot;height: 2px;&quot;&gt;&lt;br&gt;&lt;/div&gt;&lt;div style=&quot;height: 2px;&quot;&gt;&lt;br&gt;&lt;/div&gt;&lt;div style=&quot;height: 2px;&quot;&gt;&amp;nbsp;protocol: String&lt;br&gt;&lt;/div&gt;&lt;div style=&quot;height: 2px;&quot;&gt;&lt;br&gt;&lt;/div&gt;&lt;div style=&quot;height: 2px;&quot;&gt;&lt;br&gt;&lt;/div&gt;&lt;div style=&quot;height: 2px;&quot;&gt;&lt;br&gt;&lt;/div&gt;&lt;div style=&quot;height: 2px;&quot;&gt;&lt;br&gt;&lt;/div&gt;&lt;div style=&quot;height: 2px;&quot;&gt;&lt;br&gt;&lt;/div&gt;&lt;div style=&quot;height: 2px;&quot;&gt;&lt;br&gt;&lt;/div&gt;&lt;div style=&quot;height: 2px;&quot;&gt;&lt;br&gt;&lt;/div&gt;&lt;/div&gt;" style="verticalAlign=top;align=left;overflow=fill;html=1;whiteSpace=wrap;" parent="1" vertex="1">
          <mxGeometry x="6830" y="3380" width="140" height="72" as="geometry" />
        </mxCell>
        <mxCell id="9kD-dyZorlcXehqhK6V_-9" value="" style="endArrow=block;endSize=16;endFill=0;html=1;rounded=0;entryX=0.5;entryY=1;entryDx=0;entryDy=0;exitX=0.5;exitY=0;exitDx=0;exitDy=0;" parent="1" source="9kD-dyZorlcXehqhK6V_-7" target="9kD-dyZorlcXehqhK6V_-8" edge="1">
          <mxGeometry width="160" relative="1" as="geometry">
            <mxPoint x="6700" y="3584.17" as="sourcePoint" />
            <mxPoint x="6860" y="3584.17" as="targetPoint" />
            <Array as="points">
              <mxPoint x="6755" y="3490" />
              <mxPoint x="6900" y="3490" />
            </Array>
          </mxGeometry>
        </mxCell>
        <mxCell id="9kD-dyZorlcXehqhK6V_-10" value="" style="endArrow=block;endSize=16;endFill=0;html=1;rounded=0;exitX=0.5;exitY=0;exitDx=0;exitDy=0;entryX=0.5;entryY=1;entryDx=0;entryDy=0;" parent="1" source="9kD-dyZorlcXehqhK6V_-5" target="9kD-dyZorlcXehqhK6V_-8" edge="1">
          <mxGeometry width="160" relative="1" as="geometry">
            <mxPoint x="6880" y="3704" as="sourcePoint" />
            <mxPoint x="7080" y="3571.83" as="targetPoint" />
            <Array as="points">
              <mxPoint x="7045" y="3490" />
              <mxPoint x="6900" y="3490" />
            </Array>
          </mxGeometry>
        </mxCell>
        <mxCell id="9kD-dyZorlcXehqhK6V_-11" value="&lt;p style=&quot;margin:0px;margin-top:4px;text-align:center;&quot;&gt;&lt;/p&gt;&lt;div style=&quot;height:2px;&quot;&gt;&lt;/div&gt;&lt;span style=&quot;font-weight: 700;&quot;&gt;&lt;div style=&quot;text-align: center;&quot;&gt;&lt;span style=&quot;background-color: initial;&quot;&gt;&lt;i&gt;&amp;nbsp;Power Using Part&lt;/i&gt;&lt;/span&gt;&lt;/div&gt;&lt;/span&gt;&lt;hr size=&quot;1&quot; style=&quot;border-style:solid;&quot;&gt;&lt;div style=&quot;height:2px;&quot;&gt;&lt;div style=&quot;height: 2px;&quot;&gt;&lt;br&gt;&lt;/div&gt;&lt;div style=&quot;height: 2px;&quot;&gt;&lt;br&gt;&lt;/div&gt;&lt;div style=&quot;height: 2px;&quot;&gt;&lt;br&gt;&lt;/div&gt;&lt;div style=&quot;height: 2px;&quot;&gt;&lt;br&gt;&lt;/div&gt;&lt;div style=&quot;height: 2px;&quot;&gt;&lt;div style=&quot;height: 2px;&quot;&gt;&lt;span style=&quot;background-color: initial;&quot;&gt;&amp;nbsp;maxUsedPower: Float&lt;/span&gt;&lt;/div&gt;&lt;/div&gt;&lt;/div&gt;" style="verticalAlign=top;align=left;overflow=fill;html=1;whiteSpace=wrap;" parent="1" vertex="1">
          <mxGeometry x="6620" y="3675" width="140" height="72" as="geometry" />
        </mxCell>
        <mxCell id="9kD-dyZorlcXehqhK6V_-12" value="&lt;p style=&quot;margin:0px;margin-top:4px;text-align:center;&quot;&gt;&lt;/p&gt;&lt;div style=&quot;height:2px;&quot;&gt;&lt;/div&gt;&lt;span style=&quot;font-weight: 700;&quot;&gt;&lt;div style=&quot;text-align: center;&quot;&gt;&lt;span style=&quot;background-color: initial;&quot;&gt;&lt;i&gt;&amp;nbsp;Power Supplying Part&lt;/i&gt;&lt;/span&gt;&lt;/div&gt;&lt;/span&gt;&lt;hr size=&quot;1&quot; style=&quot;border-style:solid;&quot;&gt;&lt;div style=&quot;height:2px;&quot;&gt;&lt;div style=&quot;height: 2px;&quot;&gt;&lt;br&gt;&lt;/div&gt;&lt;div style=&quot;height: 2px;&quot;&gt;&lt;br&gt;&lt;/div&gt;&lt;div style=&quot;height: 2px;&quot;&gt;&lt;div style=&quot;height: 2px;&quot;&gt;&amp;nbsp;&lt;/div&gt;&lt;div style=&quot;height: 2px;&quot;&gt;&lt;br&gt;&lt;/div&gt;&amp;nbsp;safetyLevel: Enum&lt;div style=&quot;height: 2px;&quot;&gt;&lt;div style=&quot;height: 2px;&quot;&gt;&lt;div style=&quot;height: 2px;&quot;&gt;&amp;nbsp;&lt;/div&gt;&lt;div style=&quot;height: 2px;&quot;&gt;&lt;br&gt;&lt;/div&gt;&amp;nbsp;maxSuppliedPower: Float&lt;/div&gt;&lt;div style=&quot;height: 2px;&quot;&gt;&lt;br&gt;&lt;/div&gt;&lt;div style=&quot;height: 2px;&quot;&gt;&lt;br&gt;&lt;/div&gt;&lt;div style=&quot;height: 2px;&quot;&gt;&lt;br&gt;&lt;/div&gt;&lt;div style=&quot;height: 2px;&quot;&gt;&lt;br&gt;&lt;/div&gt;&lt;div style=&quot;height: 2px;&quot;&gt;&lt;br&gt;&lt;/div&gt;&lt;div style=&quot;height: 2px;&quot;&gt;&lt;br&gt;&lt;/div&gt;&lt;div style=&quot;height: 2px;&quot;&gt;&lt;br&gt;&lt;/div&gt;&lt;div style=&quot;height: 2px;&quot;&gt;&lt;br&gt;&lt;/div&gt;&lt;div style=&quot;height: 2px;&quot;&gt;&lt;br&gt;&lt;/div&gt;&lt;div style=&quot;height: 2px;&quot;&gt;&lt;br&gt;&lt;/div&gt;&lt;div style=&quot;height: 2px;&quot;&gt;&amp;nbsp;rawMaterial: String&lt;/div&gt;&lt;/div&gt;&lt;/div&gt;&lt;/div&gt;" style="verticalAlign=top;align=left;overflow=fill;html=1;whiteSpace=wrap;" parent="1" vertex="1">
          <mxGeometry x="7020" y="3669" width="160" height="101" as="geometry" />
        </mxCell>
        <mxCell id="9kD-dyZorlcXehqhK6V_-13" value="" style="endArrow=block;endSize=16;endFill=0;html=1;rounded=0;entryX=0.5;entryY=1;entryDx=0;entryDy=0;exitX=0.5;exitY=0;exitDx=0;exitDy=0;" parent="1" source="9kD-dyZorlcXehqhK6V_-11" target="9kD-dyZorlcXehqhK6V_-5" edge="1">
          <mxGeometry width="160" relative="1" as="geometry">
            <mxPoint x="6450" y="3570" as="sourcePoint" />
            <mxPoint x="6610" y="3570" as="targetPoint" />
            <Array as="points">
              <mxPoint x="6690" y="3620" />
              <mxPoint x="7045" y="3620" />
            </Array>
          </mxGeometry>
        </mxCell>
        <mxCell id="9kD-dyZorlcXehqhK6V_-14" value="" style="endArrow=block;endSize=16;endFill=0;html=1;rounded=0;entryX=0.5;entryY=1;entryDx=0;entryDy=0;exitX=0.5;exitY=0;exitDx=0;exitDy=0;" parent="1" source="9kD-dyZorlcXehqhK6V_-12" target="9kD-dyZorlcXehqhK6V_-5" edge="1">
          <mxGeometry width="160" relative="1" as="geometry">
            <mxPoint x="6450" y="3570" as="sourcePoint" />
            <mxPoint x="6610" y="3570" as="targetPoint" />
            <Array as="points">
              <mxPoint x="7100" y="3620" />
              <mxPoint x="7045" y="3620" />
            </Array>
          </mxGeometry>
        </mxCell>
        <mxCell id="9kD-dyZorlcXehqhK6V_-15" value="" style="endArrow=diamondThin;endFill=1;endSize=24;html=1;rounded=0;entryX=1;entryY=0.5;entryDx=0;entryDy=0;exitX=0;exitY=0.5;exitDx=0;exitDy=0;" parent="1" source="9kD-dyZorlcXehqhK6V_-5" target="9kD-dyZorlcXehqhK6V_-7" edge="1">
          <mxGeometry width="160" relative="1" as="geometry">
            <mxPoint x="6450" y="3570" as="sourcePoint" />
            <mxPoint x="6610" y="3570" as="targetPoint" />
          </mxGeometry>
        </mxCell>
        <mxCell id="9kD-dyZorlcXehqhK6V_-16" value="&lt;font style=&quot;font-size: 15px;&quot;&gt;*&lt;/font&gt;" style="edgeLabel;html=1;align=center;verticalAlign=middle;resizable=0;points=[];" parent="9kD-dyZorlcXehqhK6V_-15" connectable="0" vertex="1">
          <mxGeometry x="-0.8074" relative="1" as="geometry">
            <mxPoint y="-12" as="offset" />
          </mxGeometry>
        </mxCell>
        <mxCell id="9kD-dyZorlcXehqhK6V_-17" value="" style="endArrow=diamondThin;endFill=1;endSize=24;html=1;rounded=0;entryX=1;entryY=0.5;entryDx=0;entryDy=0;exitX=0;exitY=0.5;exitDx=0;exitDy=0;" parent="1" source="9kD-dyZorlcXehqhK6V_-41" target="9kD-dyZorlcXehqhK6V_-42" edge="1">
          <mxGeometry width="160" relative="1" as="geometry">
            <mxPoint x="7230" y="3884" as="sourcePoint" />
            <mxPoint x="7130" y="3884" as="targetPoint" />
          </mxGeometry>
        </mxCell>
        <mxCell id="9kD-dyZorlcXehqhK6V_-18" value="*" style="edgeLabel;html=1;align=center;verticalAlign=middle;resizable=0;points=[];fontSize=18;" parent="9kD-dyZorlcXehqhK6V_-17" connectable="0" vertex="1">
          <mxGeometry x="-0.7948" y="1" relative="1" as="geometry">
            <mxPoint y="-15" as="offset" />
          </mxGeometry>
        </mxCell>
        <mxCell id="9kD-dyZorlcXehqhK6V_-19" value="" style="endArrow=block;endSize=16;endFill=0;html=1;rounded=0;entryX=0.5;entryY=1;entryDx=0;entryDy=0;exitX=0.5;exitY=0;exitDx=0;exitDy=0;" parent="1" source="9kD-dyZorlcXehqhK6V_-43" target="9kD-dyZorlcXehqhK6V_-11" edge="1">
          <mxGeometry width="160" relative="1" as="geometry">
            <mxPoint x="6500" y="3848" as="sourcePoint" />
            <mxPoint x="6610" y="3740" as="targetPoint" />
            <Array as="points">
              <mxPoint x="6570" y="3800" />
              <mxPoint x="6690" y="3800" />
            </Array>
          </mxGeometry>
        </mxCell>
        <mxCell id="9kD-dyZorlcXehqhK6V_-20" value="" style="endArrow=block;endSize=16;endFill=0;html=1;rounded=0;entryX=0.5;entryY=1;entryDx=0;entryDy=0;exitX=0.5;exitY=0;exitDx=0;exitDy=0;" parent="1" source="9kD-dyZorlcXehqhK6V_-45" target="9kD-dyZorlcXehqhK6V_-11" edge="1">
          <mxGeometry width="160" relative="1" as="geometry">
            <mxPoint x="6860" y="3848" as="sourcePoint" />
            <mxPoint x="6610" y="3740" as="targetPoint" />
            <Array as="points">
              <mxPoint x="6800" y="3800" />
              <mxPoint x="6690" y="3800" />
            </Array>
          </mxGeometry>
        </mxCell>
        <mxCell id="9kD-dyZorlcXehqhK6V_-21" value="" style="endArrow=block;endSize=16;endFill=0;html=1;rounded=0;entryX=0.5;entryY=1;entryDx=0;entryDy=0;exitX=0.5;exitY=0;exitDx=0;exitDy=0;" parent="1" source="9kD-dyZorlcXehqhK6V_-42" target="9kD-dyZorlcXehqhK6V_-12" edge="1">
          <mxGeometry width="160" relative="1" as="geometry">
            <mxPoint x="7060" y="3848" as="sourcePoint" />
            <mxPoint x="6610" y="3740" as="targetPoint" />
            <Array as="points">
              <mxPoint x="6985" y="3820" />
              <mxPoint x="7100" y="3820" />
            </Array>
          </mxGeometry>
        </mxCell>
        <mxCell id="9kD-dyZorlcXehqhK6V_-22" value="" style="endArrow=block;endSize=16;endFill=0;html=1;rounded=0;entryX=0.5;entryY=1;entryDx=0;entryDy=0;exitX=0.5;exitY=0;exitDx=0;exitDy=0;" parent="1" source="9kD-dyZorlcXehqhK6V_-41" target="9kD-dyZorlcXehqhK6V_-12" edge="1">
          <mxGeometry width="160" relative="1" as="geometry">
            <mxPoint x="7300" y="3848" as="sourcePoint" />
            <mxPoint x="6610" y="3740" as="targetPoint" />
            <Array as="points">
              <mxPoint x="7215" y="3820" />
              <mxPoint x="7100" y="3820" />
            </Array>
          </mxGeometry>
        </mxCell>
        <mxCell id="9kD-dyZorlcXehqhK6V_-23" value="" style="endArrow=none;html=1;rounded=0;entryX=0.79;entryY=0.846;entryDx=0;entryDy=0;entryPerimeter=0;exitX=0.04;exitY=0.846;exitDx=0;exitDy=0;exitPerimeter=0;" parent="1" edge="1">
          <mxGeometry width="50" height="50" relative="1" as="geometry">
            <mxPoint x="6445" y="3969.08" as="sourcePoint" />
            <mxPoint x="7357" y="3969" as="targetPoint" />
          </mxGeometry>
        </mxCell>
        <mxCell id="9kD-dyZorlcXehqhK6V_-41" value="&lt;span style=&quot;font-weight: 700; background-color: initial;&quot;&gt;Battery&lt;/span&gt;" style="html=1;whiteSpace=wrap;" parent="1" vertex="1">
          <mxGeometry x="7160" y="3858" width="110" height="50" as="geometry" />
        </mxCell>
        <mxCell id="9kD-dyZorlcXehqhK6V_-42" value="&lt;span style=&quot;font-weight: 700; background-color: initial;&quot;&gt;Battery Pack&lt;/span&gt;" style="html=1;whiteSpace=wrap;" parent="1" vertex="1">
          <mxGeometry x="6930" y="3858" width="110" height="50" as="geometry" />
        </mxCell>
        <mxCell id="9kD-dyZorlcXehqhK6V_-43" value="&lt;span style=&quot;font-weight: 700; background-color: initial;&quot;&gt;&amp;nbsp;Engine&lt;/span&gt;" style="html=1;whiteSpace=wrap;" parent="1" vertex="1">
          <mxGeometry x="6515" y="3858" width="110" height="50" as="geometry" />
        </mxCell>
        <mxCell id="9kD-dyZorlcXehqhK6V_-45" value="&lt;span style=&quot;font-weight: 700; background-color: initial;&quot;&gt;&amp;nbsp;Multi-Media&lt;/span&gt;" style="html=1;whiteSpace=wrap;" parent="1" vertex="1">
          <mxGeometry x="6745" y="3859" width="110" height="50" as="geometry" />
        </mxCell>
        <mxCell id="9kD-dyZorlcXehqhK6V_-47" value="Monolithic SUM" style="text;html=1;align=center;verticalAlign=middle;whiteSpace=wrap;rounded=0;fontStyle=1;fontSize=23;" parent="1" vertex="1">
          <mxGeometry x="6835" y="3300" width="130" height="46" as="geometry" />
        </mxCell>
        <mxCell id="9kD-dyZorlcXehqhK6V_-48" value="" style="rounded=1;whiteSpace=wrap;html=1;arcSize=15;" parent="1" vertex="1">
          <mxGeometry x="7520" y="3279" width="1560" height="1271" as="geometry" />
        </mxCell>
        <mxCell id="9kD-dyZorlcXehqhK6V_-49" value="" style="rounded=1;whiteSpace=wrap;html=1;arcSize=15;" parent="1" vertex="1">
          <mxGeometry x="7580" y="3379" width="790" height="1121" as="geometry" />
        </mxCell>
        <mxCell id="9kD-dyZorlcXehqhK6V_-50" value="" style="endArrow=none;html=1;rounded=0;entryX=0.79;entryY=0.846;entryDx=0;entryDy=0;entryPerimeter=0;exitX=0.04;exitY=0.846;exitDx=0;exitDy=0;exitPerimeter=0;" parent="1" edge="1">
          <mxGeometry width="50" height="50" relative="1" as="geometry">
            <mxPoint x="7604" y="3459.08" as="sourcePoint" />
            <mxPoint x="8350" y="3459" as="targetPoint" />
          </mxGeometry>
        </mxCell>
        <mxCell id="9kD-dyZorlcXehqhK6V_-51" value="&lt;b&gt;ECar&lt;/b&gt;" style="html=1;whiteSpace=wrap;" parent="1" vertex="1">
          <mxGeometry x="7784" y="3632" width="110" height="50" as="geometry" />
        </mxCell>
        <mxCell id="9kD-dyZorlcXehqhK6V_-52" value="&lt;p style=&quot;margin:0px;margin-top:4px;text-align:center;&quot;&gt;&lt;/p&gt;&lt;div style=&quot;height:2px;&quot;&gt;&lt;/div&gt;&lt;span style=&quot;font-weight: 700;&quot;&gt;&lt;div style=&quot;text-align: center;&quot;&gt;&lt;span style=&quot;background-color: initial;&quot;&gt;&amp;nbsp;&lt;i&gt;Product&lt;/i&gt;&lt;/span&gt;&lt;/div&gt;&lt;/span&gt;&lt;hr size=&quot;1&quot; style=&quot;border-style:solid;&quot;&gt;&lt;div style=&quot;height:2px;&quot;&gt;&lt;div style=&quot;height: 2px;&quot;&gt;&amp;nbsp;maker: String&lt;/div&gt;&lt;div style=&quot;height: 2px;&quot;&gt;&lt;br&gt;&lt;/div&gt;&lt;div style=&quot;height: 2px;&quot;&gt;&lt;br&gt;&lt;/div&gt;&lt;div style=&quot;height: 2px;&quot;&gt;&lt;br&gt;&lt;/div&gt;&lt;div style=&quot;height: 2px;&quot;&gt;&lt;br&gt;&lt;/div&gt;&lt;div style=&quot;height: 2px;&quot;&gt;&lt;br&gt;&lt;/div&gt;&lt;div style=&quot;height: 2px;&quot;&gt;&lt;br&gt;&lt;/div&gt;&lt;div style=&quot;height: 2px;&quot;&gt;&lt;br&gt;&lt;/div&gt;&lt;div style=&quot;height: 2px;&quot;&gt;&amp;nbsp;&lt;/div&gt;&lt;div style=&quot;height: 2px;&quot;&gt;&amp;nbsp;&lt;span style=&quot;background-color: initial;&quot;&gt;protocol: String&lt;/span&gt;&lt;/div&gt;&lt;div style=&quot;height: 2px;&quot;&gt;&lt;span style=&quot;background-color: initial;&quot;&gt;&lt;br&gt;&lt;/span&gt;&lt;/div&gt;&lt;div style=&quot;height: 2px;&quot;&gt;&lt;span style=&quot;background-color: initial;&quot;&gt;&lt;br&gt;&lt;/span&gt;&lt;/div&gt;&lt;div style=&quot;height: 2px;&quot;&gt;&lt;span style=&quot;background-color: initial;&quot;&gt;&lt;br&gt;&lt;/span&gt;&lt;/div&gt;&lt;div style=&quot;height: 2px;&quot;&gt;&lt;span style=&quot;background-color: initial;&quot;&gt;&lt;br&gt;&lt;/span&gt;&lt;/div&gt;&lt;div style=&quot;height: 2px;&quot;&gt;&lt;span style=&quot;background-color: initial;&quot;&gt;&lt;br&gt;&lt;/span&gt;&lt;/div&gt;&lt;div style=&quot;height: 2px;&quot;&gt;&lt;span style=&quot;background-color: initial;&quot;&gt;&lt;br&gt;&lt;/span&gt;&lt;/div&gt;&lt;div style=&quot;height: 2px;&quot;&gt;&lt;br&gt;&lt;/div&gt;&lt;/div&gt;" style="verticalAlign=top;align=left;overflow=fill;html=1;whiteSpace=wrap;" parent="1" vertex="1">
          <mxGeometry x="7914" y="3479" width="140" height="71" as="geometry" />
        </mxCell>
        <mxCell id="9kD-dyZorlcXehqhK6V_-53" value="" style="endArrow=block;endSize=16;endFill=0;html=1;rounded=0;entryX=0.5;entryY=1;entryDx=0;entryDy=0;exitX=0.5;exitY=0;exitDx=0;exitDy=0;" parent="1" source="9kD-dyZorlcXehqhK6V_-51" target="9kD-dyZorlcXehqhK6V_-52" edge="1">
          <mxGeometry width="160" relative="1" as="geometry">
            <mxPoint x="7784" y="3683.17" as="sourcePoint" />
            <mxPoint x="7944" y="3683.17" as="targetPoint" />
            <Array as="points">
              <mxPoint x="7839" y="3610" />
              <mxPoint x="7984" y="3610" />
            </Array>
          </mxGeometry>
        </mxCell>
        <mxCell id="9kD-dyZorlcXehqhK6V_-54" value="" style="endArrow=block;endSize=16;endFill=0;html=1;rounded=0;exitX=0.5;exitY=0;exitDx=0;exitDy=0;entryX=0.5;entryY=1;entryDx=0;entryDy=0;" parent="1" source="9kD-dyZorlcXehqhK6V_-108" target="9kD-dyZorlcXehqhK6V_-52" edge="1">
          <mxGeometry width="160" relative="1" as="geometry">
            <mxPoint x="8129" y="3632" as="sourcePoint" />
            <mxPoint x="8164" y="3670.83" as="targetPoint" />
            <Array as="points">
              <mxPoint x="8129" y="3610" />
              <mxPoint x="7984" y="3610" />
            </Array>
          </mxGeometry>
        </mxCell>
        <mxCell id="9kD-dyZorlcXehqhK6V_-55" value="&lt;p style=&quot;margin:0px;margin-top:4px;text-align:center;&quot;&gt;&lt;/p&gt;&lt;div style=&quot;height:2px;&quot;&gt;&lt;/div&gt;&lt;span style=&quot;font-weight: 700;&quot;&gt;&lt;div style=&quot;text-align: center;&quot;&gt;&lt;span style=&quot;background-color: initial;&quot;&gt;&amp;nbsp;&lt;i&gt;Power Using Part&lt;/i&gt;&lt;/span&gt;&lt;/div&gt;&lt;/span&gt;&lt;hr size=&quot;1&quot; style=&quot;border-style:solid;&quot;&gt;&lt;div style=&quot;height:2px;&quot;&gt;&lt;div style=&quot;height: 2px;&quot;&gt;&lt;br&gt;&lt;/div&gt;&lt;div style=&quot;height: 2px;&quot;&gt;&lt;br&gt;&lt;/div&gt;&lt;div style=&quot;height: 2px;&quot;&gt;&lt;br&gt;&lt;/div&gt;&lt;div style=&quot;height: 2px;&quot;&gt;&lt;br&gt;&lt;/div&gt;&lt;div style=&quot;height: 2px;&quot;&gt;&lt;div style=&quot;height: 2px;&quot;&gt;&lt;span style=&quot;background-color: initial;&quot;&gt;&amp;nbsp;maxUsedPower:Float&lt;/span&gt;&lt;/div&gt;&lt;/div&gt;&lt;/div&gt;" style="verticalAlign=top;align=left;overflow=fill;html=1;whiteSpace=wrap;" parent="1" vertex="1">
          <mxGeometry x="7799" y="3774" width="140" height="72" as="geometry" />
        </mxCell>
        <mxCell id="9kD-dyZorlcXehqhK6V_-56" value="&lt;p style=&quot;margin:0px;margin-top:4px;text-align:center;&quot;&gt;&lt;/p&gt;&lt;div style=&quot;height:2px;&quot;&gt;&lt;/div&gt;&lt;span style=&quot;font-weight: 700;&quot;&gt;&lt;div style=&quot;text-align: center;&quot;&gt;&lt;span style=&quot;background-color: initial;&quot;&gt;&lt;i&gt;&amp;nbsp;Power Supplying Part&lt;/i&gt;&lt;/span&gt;&lt;/div&gt;&lt;/span&gt;&lt;hr size=&quot;1&quot; style=&quot;border-style:solid;&quot;&gt;&lt;div style=&quot;height:2px;&quot;&gt;&lt;div style=&quot;height: 2px;&quot;&gt;&amp;nbsp;safetyLevel: Enum&lt;/div&gt;&lt;div style=&quot;height: 2px;&quot;&gt;&lt;br&gt;&lt;/div&gt;&lt;div style=&quot;height: 2px;&quot;&gt;&lt;div style=&quot;height: 2px;&quot;&gt;&amp;nbsp;&amp;nbsp;&lt;/div&gt;&lt;div style=&quot;height: 2px;&quot;&gt;&lt;br&gt;&lt;/div&gt;&lt;div style=&quot;height: 2px;&quot;&gt;&lt;br&gt;&lt;/div&gt;&lt;div style=&quot;height: 2px;&quot;&gt;&lt;br&gt;&lt;/div&gt;&lt;div style=&quot;height: 2px;&quot;&gt;&lt;br&gt;&lt;/div&gt;&lt;div style=&quot;height: 2px;&quot;&gt;&lt;br&gt;&lt;/div&gt;&lt;div style=&quot;height: 2px;&quot;&gt;&lt;br&gt;&lt;/div&gt;&amp;nbsp;maxSuppliedPower:Float&lt;/div&gt;&lt;/div&gt;" style="verticalAlign=top;align=left;overflow=fill;html=1;whiteSpace=wrap;" parent="1" vertex="1">
          <mxGeometry x="8114" y="3768" width="140" height="72" as="geometry" />
        </mxCell>
        <mxCell id="9kD-dyZorlcXehqhK6V_-57" value="" style="endArrow=block;endSize=16;endFill=0;html=1;rounded=0;exitX=0.5;exitY=0;exitDx=0;exitDy=0;entryX=0.5;entryY=1;entryDx=0;entryDy=0;" parent="1" source="9kD-dyZorlcXehqhK6V_-55" target="9kD-dyZorlcXehqhK6V_-108" edge="1">
          <mxGeometry width="160" relative="1" as="geometry">
            <mxPoint x="7534" y="3669" as="sourcePoint" />
            <mxPoint x="8129" y="3682" as="targetPoint" />
            <Array as="points">
              <mxPoint x="7869.5" y="3719" />
              <mxPoint x="8129" y="3719" />
            </Array>
          </mxGeometry>
        </mxCell>
        <mxCell id="9kD-dyZorlcXehqhK6V_-58" value="" style="endArrow=block;endSize=16;endFill=0;html=1;rounded=0;exitX=0.5;exitY=0;exitDx=0;exitDy=0;entryX=0.5;entryY=1;entryDx=0;entryDy=0;" parent="1" source="9kD-dyZorlcXehqhK6V_-56" target="9kD-dyZorlcXehqhK6V_-108" edge="1">
          <mxGeometry width="160" relative="1" as="geometry">
            <mxPoint x="7534" y="3669" as="sourcePoint" />
            <mxPoint x="8129" y="3682" as="targetPoint" />
            <Array as="points">
              <mxPoint x="8184" y="3719" />
              <mxPoint x="8129" y="3719" />
            </Array>
          </mxGeometry>
        </mxCell>
        <mxCell id="9kD-dyZorlcXehqhK6V_-59" value="" style="endArrow=diamondThin;endFill=1;endSize=24;html=1;rounded=0;entryX=1;entryY=0.5;entryDx=0;entryDy=0;exitX=0;exitY=0.5;exitDx=0;exitDy=0;" parent="1" target="9kD-dyZorlcXehqhK6V_-51" edge="1">
          <mxGeometry width="160" relative="1" as="geometry">
            <mxPoint x="8074" y="3657" as="sourcePoint" />
            <mxPoint x="7694" y="3669" as="targetPoint" />
          </mxGeometry>
        </mxCell>
        <mxCell id="9kD-dyZorlcXehqhK6V_-60" value="&lt;font style=&quot;font-size: 15px;&quot;&gt;*&lt;/font&gt;" style="edgeLabel;html=1;align=center;verticalAlign=middle;resizable=0;points=[];" parent="9kD-dyZorlcXehqhK6V_-59" connectable="0" vertex="1">
          <mxGeometry x="-0.8074" relative="1" as="geometry">
            <mxPoint y="-12" as="offset" />
          </mxGeometry>
        </mxCell>
        <mxCell id="9kD-dyZorlcXehqhK6V_-61" value="" style="endArrow=block;endSize=16;endFill=0;html=1;rounded=0;entryX=0.5;entryY=1;entryDx=0;entryDy=0;exitX=0.5;exitY=0;exitDx=0;exitDy=0;" parent="1" source="9kD-dyZorlcXehqhK6V_-74" target="9kD-dyZorlcXehqhK6V_-55" edge="1">
          <mxGeometry width="160" relative="1" as="geometry">
            <mxPoint x="7679" y="3947" as="sourcePoint" />
            <mxPoint x="7789" y="3839" as="targetPoint" />
            <Array as="points">
              <mxPoint x="7775" y="3899" />
              <mxPoint x="7869" y="3899" />
            </Array>
          </mxGeometry>
        </mxCell>
        <mxCell id="9kD-dyZorlcXehqhK6V_-62" value="" style="endArrow=block;endSize=16;endFill=0;html=1;rounded=0;entryX=0.5;entryY=1;entryDx=0;entryDy=0;exitX=0.5;exitY=0;exitDx=0;exitDy=0;" parent="1" source="9kD-dyZorlcXehqhK6V_-75" target="9kD-dyZorlcXehqhK6V_-55" edge="1">
          <mxGeometry width="160" relative="1" as="geometry">
            <mxPoint x="8039" y="3947" as="sourcePoint" />
            <mxPoint x="7789" y="3839" as="targetPoint" />
            <Array as="points">
              <mxPoint x="7954" y="3900" />
              <mxPoint x="7869" y="3899" />
            </Array>
          </mxGeometry>
        </mxCell>
        <mxCell id="9kD-dyZorlcXehqhK6V_-63" value="" style="endArrow=none;html=1;rounded=0;entryX=0.79;entryY=0.846;entryDx=0;entryDy=0;entryPerimeter=0;exitX=0.04;exitY=0.846;exitDx=0;exitDy=0;exitPerimeter=0;" parent="1" edge="1">
          <mxGeometry width="50" height="50" relative="1" as="geometry">
            <mxPoint x="7606" y="4069" as="sourcePoint" />
            <mxPoint x="8350" y="4068" as="targetPoint" />
          </mxGeometry>
        </mxCell>
        <mxCell id="9kD-dyZorlcXehqhK6V_-64" value="&lt;p style=&quot;margin:0px;margin-top:4px;text-align:center;&quot;&gt;&lt;/p&gt;&lt;div style=&quot;height:2px;&quot;&gt;&lt;/div&gt;&lt;div style=&quot;text-align: center;&quot;&gt;&lt;span style=&quot;font-weight: 700; background-color: initial;&quot;&gt;&amp;nbsp;BMW4er&lt;/span&gt;&lt;span style=&quot;background-color: initial;&quot;&gt;&lt;b&gt;:&lt;/b&gt;ECar&lt;/span&gt;&lt;/div&gt;&lt;hr size=&quot;1&quot; style=&quot;border-style:solid;&quot;&gt;&lt;div style=&quot;height:2px;&quot;&gt;&lt;div style=&quot;height: 2px;&quot;&gt;&amp;nbsp;maker:BMW&lt;/div&gt;&lt;div style=&quot;height: 2px;&quot;&gt;&lt;br&gt;&lt;/div&gt;&lt;div style=&quot;height: 2px;&quot;&gt;&lt;br&gt;&lt;/div&gt;&lt;div style=&quot;height: 2px;&quot;&gt;&lt;br&gt;&lt;/div&gt;&lt;div style=&quot;height: 2px;&quot;&gt;&lt;br&gt;&lt;/div&gt;&lt;div style=&quot;height: 2px;&quot;&gt;&lt;br&gt;&lt;/div&gt;&lt;div style=&quot;height: 2px;&quot;&gt;&lt;br&gt;&lt;/div&gt;&lt;div style=&quot;height: 2px;&quot;&gt;&lt;br&gt;&lt;/div&gt;&lt;div style=&quot;height: 2px;&quot;&gt;&lt;br&gt;&lt;/div&gt;&lt;div style=&quot;height: 2px;&quot;&gt;&amp;nbsp;protocol: EMS&lt;/div&gt;&lt;/div&gt;" style="verticalAlign=top;align=left;overflow=fill;html=1;whiteSpace=wrap;" parent="1" vertex="1">
          <mxGeometry x="7800" y="4240" width="180" height="80" as="geometry" />
        </mxCell>
        <mxCell id="9kD-dyZorlcXehqhK6V_-65" value="&lt;p style=&quot;margin:0px;margin-top:4px;text-align:center;&quot;&gt;&lt;/p&gt;&lt;div style=&quot;height:2px;&quot;&gt;&lt;/div&gt;&lt;div style=&quot;text-align: center;&quot;&gt;&lt;span style=&quot;font-weight: 700; background-color: initial;&quot;&gt;&amp;nbsp;&lt;/span&gt;&lt;span style=&quot;background-color: initial; text-align: left;&quot;&gt;&lt;b&gt;eDrive50&lt;/b&gt;&lt;/span&gt;&lt;span style=&quot;background-color: initial;&quot;&gt;&lt;b&gt;:&lt;/b&gt;Engine&lt;/span&gt;&lt;/div&gt;&lt;hr size=&quot;1&quot; style=&quot;border-style:solid;&quot;&gt;&lt;div style=&quot;height:2px;&quot;&gt;&lt;div style=&quot;height: 2px;&quot;&gt;&amp;nbsp;&lt;span style=&quot;background-color: initial;&quot;&gt;maker:BMW&lt;/span&gt;&lt;/div&gt;&lt;div style=&quot;height: 2px;&quot;&gt;&lt;br&gt;&lt;/div&gt;&lt;div style=&quot;height: 2px;&quot;&gt;&lt;br&gt;&lt;/div&gt;&lt;div style=&quot;height: 2px;&quot;&gt;&lt;br&gt;&lt;/div&gt;&lt;div style=&quot;height: 2px;&quot;&gt;&lt;br&gt;&lt;/div&gt;&lt;div style=&quot;height: 2px;&quot;&gt;&lt;br&gt;&lt;/div&gt;&lt;div style=&quot;height: 2px;&quot;&gt;&lt;br&gt;&lt;/div&gt;&lt;div style=&quot;height: 2px;&quot;&gt;&lt;br&gt;&lt;/div&gt;&lt;div style=&quot;height: 2px;&quot;&gt;&lt;br&gt;&lt;/div&gt;&lt;div style=&quot;height: 2px;&quot;&gt;&lt;div style=&quot;height: 2px;&quot;&gt;&lt;span style=&quot;background-color: initial;&quot;&gt;&amp;nbsp;maxUsedPower: 60&lt;/span&gt;&lt;/div&gt;&lt;div style=&quot;height: 2px;&quot;&gt;&lt;span style=&quot;background-color: initial;&quot;&gt;&lt;br&gt;&lt;/span&gt;&lt;/div&gt;&lt;div style=&quot;height: 2px;&quot;&gt;&lt;span style=&quot;background-color: initial;&quot;&gt;&lt;br&gt;&lt;/span&gt;&lt;/div&gt;&lt;div style=&quot;height: 2px;&quot;&gt;&lt;span style=&quot;background-color: initial;&quot;&gt;&lt;br&gt;&lt;/span&gt;&lt;/div&gt;&lt;div style=&quot;height: 2px;&quot;&gt;&lt;span style=&quot;background-color: initial;&quot;&gt;&lt;br&gt;&lt;/span&gt;&lt;/div&gt;&lt;div style=&quot;height: 2px;&quot;&gt;&lt;span style=&quot;background-color: initial;&quot;&gt;&lt;br&gt;&lt;/span&gt;&lt;/div&gt;&lt;div style=&quot;height: 2px;&quot;&gt;&lt;span style=&quot;background-color: initial;&quot;&gt;&lt;br&gt;&lt;/span&gt;&lt;/div&gt;&lt;div style=&quot;height: 2px;&quot;&gt;&lt;span style=&quot;background-color: initial;&quot;&gt;&lt;br&gt;&lt;/span&gt;&lt;/div&gt;&lt;div style=&quot;height: 2px;&quot;&gt;&lt;span style=&quot;background-color: initial;&quot;&gt;&amp;nbsp;protocol:&amp;nbsp;&lt;/span&gt;&lt;span style=&quot;background-color: initial;&quot;&gt;EMS&lt;/span&gt;&lt;/div&gt;&lt;/div&gt;&lt;/div&gt;" style="verticalAlign=top;align=left;overflow=fill;html=1;whiteSpace=wrap;" parent="1" vertex="1">
          <mxGeometry x="7820" y="4087" width="140" height="93" as="geometry" />
        </mxCell>
        <mxCell id="9kD-dyZorlcXehqhK6V_-66" value="&lt;p style=&quot;margin:0px;margin-top:4px;text-align:center;&quot;&gt;&lt;/p&gt;&lt;div style=&quot;height:2px;&quot;&gt;&lt;/div&gt;&lt;div style=&quot;text-align: center;&quot;&gt;&lt;span style=&quot;font-weight: 700; background-color: initial;&quot;&gt;&amp;nbsp;&lt;/span&gt;&lt;span style=&quot;font-weight: 700;&quot;&gt;E90&lt;/span&gt;&lt;span style=&quot;background-color: initial;&quot;&gt;&lt;b&gt;:&lt;/b&gt;EMulti-Media&lt;/span&gt;&lt;/div&gt;&lt;hr size=&quot;1&quot; style=&quot;border-style:solid;&quot;&gt;&lt;div style=&quot;height:2px;&quot;&gt;&lt;div style=&quot;height: 2px;&quot;&gt;&amp;nbsp;&lt;span style=&quot;background-color: initial;&quot;&gt;maker:BMW&lt;/span&gt;&lt;/div&gt;&lt;div style=&quot;height: 2px;&quot;&gt;&lt;br&gt;&lt;/div&gt;&lt;div style=&quot;height: 2px;&quot;&gt;&lt;br&gt;&lt;/div&gt;&lt;div style=&quot;height: 2px;&quot;&gt;&lt;br&gt;&lt;/div&gt;&lt;div style=&quot;height: 2px;&quot;&gt;&lt;br&gt;&lt;/div&gt;&lt;div style=&quot;height: 2px;&quot;&gt;&lt;br&gt;&lt;/div&gt;&lt;div style=&quot;height: 2px;&quot;&gt;&lt;br&gt;&lt;/div&gt;&lt;div style=&quot;height: 2px;&quot;&gt;&lt;br&gt;&lt;/div&gt;&lt;div style=&quot;height: 2px;&quot;&gt;&lt;br&gt;&lt;/div&gt;&lt;div style=&quot;height: 2px;&quot;&gt;&lt;div style=&quot;height: 2px;&quot;&gt;&lt;span style=&quot;background-color: initial;&quot;&gt;&amp;nbsp;maxUsedPower: 10&lt;/span&gt;&lt;/div&gt;&lt;div style=&quot;height: 2px;&quot;&gt;&lt;span style=&quot;background-color: initial;&quot;&gt;&lt;br&gt;&lt;/span&gt;&lt;/div&gt;&lt;div style=&quot;height: 2px;&quot;&gt;&lt;span style=&quot;background-color: initial;&quot;&gt;&lt;br&gt;&lt;/span&gt;&lt;/div&gt;&lt;div style=&quot;height: 2px;&quot;&gt;&lt;span style=&quot;background-color: initial;&quot;&gt;&lt;br&gt;&lt;/span&gt;&lt;/div&gt;&lt;div style=&quot;height: 2px;&quot;&gt;&lt;span style=&quot;background-color: initial;&quot;&gt;&lt;br&gt;&lt;/span&gt;&lt;/div&gt;&lt;div style=&quot;height: 2px;&quot;&gt;&lt;span style=&quot;background-color: initial;&quot;&gt;&lt;br&gt;&lt;/span&gt;&lt;/div&gt;&lt;div style=&quot;height: 2px;&quot;&gt;&lt;span style=&quot;background-color: initial;&quot;&gt;&lt;br&gt;&lt;/span&gt;&lt;/div&gt;&lt;div style=&quot;height: 2px;&quot;&gt;&lt;span style=&quot;background-color: initial;&quot;&gt;&lt;br&gt;&lt;/span&gt;&lt;/div&gt;&lt;div style=&quot;height: 2px;&quot;&gt;&lt;span style=&quot;background-color: initial;&quot;&gt;&lt;br&gt;&lt;/span&gt;&lt;/div&gt;&lt;div style=&quot;height: 2px;&quot;&gt;&lt;span style=&quot;background-color: initial;&quot;&gt;&amp;nbsp;protocol:&amp;nbsp;&lt;/span&gt;&lt;span style=&quot;background-color: initial;&quot;&gt;LIN&lt;/span&gt;&lt;br&gt;&lt;/div&gt;&lt;/div&gt;&lt;/div&gt;" style="verticalAlign=top;align=left;overflow=fill;html=1;whiteSpace=wrap;" parent="1" vertex="1">
          <mxGeometry x="7820" y="4390" width="140" height="92" as="geometry" />
        </mxCell>
        <mxCell id="9kD-dyZorlcXehqhK6V_-67" value="&lt;p style=&quot;margin:0px;margin-top:4px;text-align:center;&quot;&gt;&lt;/p&gt;&lt;div style=&quot;height:2px;&quot;&gt;&lt;/div&gt;&lt;div style=&quot;text-align: center;&quot;&gt;&lt;span style=&quot;font-weight: 700; background-color: initial;&quot;&gt;&amp;nbsp;&lt;/span&gt;&lt;span style=&quot;font-weight: 700;&quot;&gt;BoughtInBP&lt;/span&gt;&lt;span style=&quot;background-color: initial;&quot;&gt;&lt;b&gt;:&lt;/b&gt;Battery Pack&lt;/span&gt;&lt;/div&gt;&lt;hr size=&quot;1&quot; style=&quot;border-style:solid;&quot;&gt;&lt;div style=&quot;height:2px;&quot;&gt;&lt;div style=&quot;height: 2px;&quot;&gt;&amp;nbsp;maker: ??&lt;/div&gt;&lt;div style=&quot;height: 2px;&quot;&gt;&lt;br&gt;&lt;/div&gt;&lt;div style=&quot;height: 2px;&quot;&gt;&lt;br&gt;&lt;/div&gt;&lt;div style=&quot;height: 2px;&quot;&gt;&lt;br&gt;&lt;/div&gt;&lt;div style=&quot;height: 2px;&quot;&gt;&lt;br&gt;&lt;/div&gt;&lt;div style=&quot;height: 2px;&quot;&gt;&lt;br&gt;&lt;/div&gt;&lt;div style=&quot;height: 2px;&quot;&gt;&lt;br&gt;&lt;/div&gt;&lt;div style=&quot;height: 2px;&quot;&gt;&amp;nbsp;&amp;nbsp;&lt;/div&gt;&lt;div style=&quot;height: 2px;&quot;&gt;&lt;br&gt;&lt;/div&gt;&lt;div style=&quot;height: 2px;&quot;&gt;&amp;nbsp;safetyLevel: ??&lt;br&gt;&lt;/div&gt;&lt;div style=&quot;height: 2px;&quot;&gt;&lt;br&gt;&lt;/div&gt;&lt;div style=&quot;height: 2px;&quot;&gt;&lt;br&gt;&lt;/div&gt;&lt;div style=&quot;height: 2px;&quot;&gt;&lt;br&gt;&lt;/div&gt;&lt;div style=&quot;height: 2px;&quot;&gt;&lt;br&gt;&lt;/div&gt;&lt;div style=&quot;height: 2px;&quot;&gt;&lt;br&gt;&lt;/div&gt;&lt;div style=&quot;height: 2px;&quot;&gt;&lt;br&gt;&lt;/div&gt;&lt;div style=&quot;height: 2px;&quot;&gt;&lt;br&gt;&lt;/div&gt;&lt;div style=&quot;height: 2px;&quot;&gt;&lt;br&gt;&lt;/div&gt;&lt;div style=&quot;height: 2px;&quot;&gt;&amp;nbsp;maxSuppliedPower: ??&lt;br&gt;&lt;/div&gt;&lt;div style=&quot;height: 2px;&quot;&gt;&lt;br&gt;&lt;/div&gt;&lt;div style=&quot;height: 2px;&quot;&gt;&lt;br&gt;&lt;/div&gt;&lt;div style=&quot;height: 2px;&quot;&gt;&lt;br&gt;&lt;/div&gt;&lt;div style=&quot;height: 2px;&quot;&gt;&lt;br&gt;&lt;/div&gt;&lt;div style=&quot;height: 2px;&quot;&gt;&lt;br&gt;&lt;/div&gt;&lt;div style=&quot;height: 2px;&quot;&gt;&lt;br&gt;&lt;/div&gt;&lt;div style=&quot;height: 2px;&quot;&gt;&lt;br&gt;&lt;/div&gt;&lt;div style=&quot;height: 2px;&quot;&gt;&lt;br&gt;&lt;/div&gt;&lt;div style=&quot;height: 2px;&quot;&gt;&amp;nbsp;protocol: ??&lt;br&gt;&lt;/div&gt;&lt;/div&gt;" style="verticalAlign=top;align=left;overflow=fill;html=1;whiteSpace=wrap;" parent="1" vertex="1">
          <mxGeometry x="8085" y="4226.5" width="155" height="106.5" as="geometry" />
        </mxCell>
        <mxCell id="9kD-dyZorlcXehqhK6V_-68" value="" style="endArrow=diamondThin;endFill=1;endSize=24;html=1;rounded=0;entryX=0.5;entryY=0;entryDx=0;entryDy=0;exitX=0.5;exitY=1;exitDx=0;exitDy=0;" parent="1" source="9kD-dyZorlcXehqhK6V_-65" target="9kD-dyZorlcXehqhK6V_-64" edge="1">
          <mxGeometry width="160" relative="1" as="geometry">
            <mxPoint x="7720" y="4295" as="sourcePoint" />
            <mxPoint x="7830" y="4295" as="targetPoint" />
          </mxGeometry>
        </mxCell>
        <mxCell id="9kD-dyZorlcXehqhK6V_-69" value="1" style="edgeLabel;html=1;align=center;verticalAlign=middle;resizable=0;points=[];" parent="9kD-dyZorlcXehqhK6V_-68" connectable="0" vertex="1">
          <mxGeometry x="-0.7333" y="1" relative="1" as="geometry">
            <mxPoint x="5" as="offset" />
          </mxGeometry>
        </mxCell>
        <mxCell id="9kD-dyZorlcXehqhK6V_-70" value="" style="endArrow=diamondThin;endFill=1;endSize=24;html=1;rounded=0;entryX=0.5;entryY=1;entryDx=0;entryDy=0;exitX=0.5;exitY=0;exitDx=0;exitDy=0;" parent="1" source="9kD-dyZorlcXehqhK6V_-66" target="9kD-dyZorlcXehqhK6V_-64" edge="1">
          <mxGeometry width="160" relative="1" as="geometry">
            <mxPoint x="7900" y="4169" as="sourcePoint" />
            <mxPoint x="7900" y="4259" as="targetPoint" />
          </mxGeometry>
        </mxCell>
        <mxCell id="9kD-dyZorlcXehqhK6V_-71" value="1" style="edgeLabel;html=1;align=center;verticalAlign=middle;resizable=0;points=[];" parent="9kD-dyZorlcXehqhK6V_-70" connectable="0" vertex="1">
          <mxGeometry x="-0.7303" y="2" relative="1" as="geometry">
            <mxPoint x="8" as="offset" />
          </mxGeometry>
        </mxCell>
        <mxCell id="9kD-dyZorlcXehqhK6V_-72" value="" style="endArrow=diamondThin;endFill=1;endSize=24;html=1;rounded=0;entryX=1;entryY=0.5;entryDx=0;entryDy=0;exitX=0;exitY=0.5;exitDx=0;exitDy=0;" parent="1" source="9kD-dyZorlcXehqhK6V_-67" target="9kD-dyZorlcXehqhK6V_-64" edge="1">
          <mxGeometry width="160" relative="1" as="geometry">
            <mxPoint x="7900" y="4420" as="sourcePoint" />
            <mxPoint x="7900" y="4331" as="targetPoint" />
          </mxGeometry>
        </mxCell>
        <mxCell id="9kD-dyZorlcXehqhK6V_-73" value="1" style="edgeLabel;html=1;align=center;verticalAlign=middle;resizable=0;points=[];" parent="9kD-dyZorlcXehqhK6V_-72" connectable="0" vertex="1">
          <mxGeometry x="-0.8453" y="-1" relative="1" as="geometry">
            <mxPoint y="-8" as="offset" />
          </mxGeometry>
        </mxCell>
        <mxCell id="9kD-dyZorlcXehqhK6V_-74" value="&lt;span style=&quot;font-weight: 700; background-color: initial;&quot;&gt;&amp;nbsp;Engine&lt;/span&gt;" style="html=1;whiteSpace=wrap;" parent="1" vertex="1">
          <mxGeometry x="7720" y="3956" width="110" height="50" as="geometry" />
        </mxCell>
        <mxCell id="9kD-dyZorlcXehqhK6V_-75" value="&lt;span style=&quot;font-weight: 700; background-color: initial;&quot;&gt;&amp;nbsp;Multi-Media&lt;/span&gt;" style="html=1;whiteSpace=wrap;" parent="1" vertex="1">
          <mxGeometry x="7899" y="3955" width="110" height="50" as="geometry" />
        </mxCell>
        <mxCell id="9kD-dyZorlcXehqhK6V_-76" value="BMW" style="text;html=1;align=center;verticalAlign=middle;whiteSpace=wrap;rounded=0;fontStyle=1;fontSize=23;" parent="1" vertex="1">
          <mxGeometry x="7910" y="3396" width="130" height="46" as="geometry" />
        </mxCell>
        <mxCell id="9kD-dyZorlcXehqhK6V_-77" value="" style="rounded=1;whiteSpace=wrap;html=1;arcSize=15;" parent="1" vertex="1">
          <mxGeometry x="8418" y="3379" width="622" height="1111" as="geometry" />
        </mxCell>
        <mxCell id="9kD-dyZorlcXehqhK6V_-78" value="" style="endArrow=none;html=1;rounded=0;entryX=0.79;entryY=0.846;entryDx=0;entryDy=0;entryPerimeter=0;exitX=0.04;exitY=0.846;exitDx=0;exitDy=0;exitPerimeter=0;" parent="1" edge="1">
          <mxGeometry width="50" height="50" relative="1" as="geometry">
            <mxPoint x="8462" y="3458.08" as="sourcePoint" />
            <mxPoint x="9000" y="3458" as="targetPoint" />
          </mxGeometry>
        </mxCell>
        <mxCell id="9kD-dyZorlcXehqhK6V_-79" value="&lt;p style=&quot;margin:0px;margin-top:4px;text-align:center;&quot;&gt;&lt;/p&gt;&lt;div style=&quot;height:2px;&quot;&gt;&lt;/div&gt;&lt;span style=&quot;font-weight: 700;&quot;&gt;&lt;div style=&quot;text-align: center;&quot;&gt;&lt;span style=&quot;background-color: initial;&quot;&gt;&amp;nbsp;&lt;i&gt;Power Supplying Part&lt;/i&gt;&lt;/span&gt;&lt;/div&gt;&lt;/span&gt;&lt;hr size=&quot;1&quot; style=&quot;border-style:solid;&quot;&gt;&amp;nbsp;safetyLevel: Enum&lt;div style=&quot;height:2px;&quot;&gt;&lt;div style=&quot;height: 2px;&quot;&gt;&lt;div style=&quot;height: 2px;&quot;&gt;&amp;nbsp;&lt;/div&gt;&lt;div style=&quot;height: 2px;&quot;&gt;&lt;br&gt;&lt;/div&gt;&amp;nbsp;maxSuppliedPower: Float&lt;/div&gt;&lt;div style=&quot;height: 2px;&quot;&gt;&lt;br&gt;&lt;/div&gt;&lt;div style=&quot;height: 2px;&quot;&gt;&lt;br&gt;&lt;/div&gt;&lt;div style=&quot;height: 2px;&quot;&gt;&lt;br&gt;&lt;/div&gt;&lt;div style=&quot;height: 2px;&quot;&gt;&lt;br&gt;&lt;/div&gt;&lt;div style=&quot;height: 2px;&quot;&gt;&lt;br&gt;&lt;/div&gt;&lt;div style=&quot;height: 2px;&quot;&gt;&lt;br&gt;&lt;/div&gt;&lt;div style=&quot;height: 2px;&quot;&gt;&lt;br&gt;&lt;/div&gt;&lt;div style=&quot;height: 2px;&quot;&gt;&lt;br&gt;&lt;/div&gt;&lt;div style=&quot;height: 2px;&quot;&gt;&lt;br&gt;&lt;/div&gt;&lt;div style=&quot;height: 2px;&quot;&gt;&lt;br&gt;&lt;/div&gt;&lt;div style=&quot;height: 2px;&quot;&gt;&amp;nbsp;rawMaterial: String&lt;br&gt;&lt;/div&gt;&lt;/div&gt;" style="verticalAlign=top;align=left;overflow=fill;html=1;whiteSpace=wrap;" parent="1" vertex="1">
          <mxGeometry x="8699.75" y="3767" width="150" height="93" as="geometry" />
        </mxCell>
        <mxCell id="9kD-dyZorlcXehqhK6V_-80" value="" style="endArrow=diamondThin;endFill=1;endSize=24;html=1;rounded=0;entryX=1;entryY=0.5;entryDx=0;entryDy=0;exitX=0;exitY=0.5;exitDx=0;exitDy=0;" parent="1" source="9kD-dyZorlcXehqhK6V_-92" target="9kD-dyZorlcXehqhK6V_-93" edge="1">
          <mxGeometry width="160" relative="1" as="geometry">
            <mxPoint x="8904.75" y="3982" as="sourcePoint" />
            <mxPoint x="8804.75" y="3982" as="targetPoint" />
          </mxGeometry>
        </mxCell>
        <mxCell id="9kD-dyZorlcXehqhK6V_-81" value="*" style="edgeLabel;html=1;align=center;verticalAlign=middle;resizable=0;points=[];fontSize=18;" parent="9kD-dyZorlcXehqhK6V_-80" connectable="0" vertex="1">
          <mxGeometry x="-0.7948" y="1" relative="1" as="geometry">
            <mxPoint y="-15" as="offset" />
          </mxGeometry>
        </mxCell>
        <mxCell id="9kD-dyZorlcXehqhK6V_-82" value="" style="endArrow=block;endSize=16;endFill=0;html=1;rounded=0;entryX=0.5;entryY=1;entryDx=0;entryDy=0;exitX=0.5;exitY=0;exitDx=0;exitDy=0;" parent="1" source="9kD-dyZorlcXehqhK6V_-93" target="9kD-dyZorlcXehqhK6V_-79" edge="1">
          <mxGeometry width="160" relative="1" as="geometry">
            <mxPoint x="8734.75" y="3946" as="sourcePoint" />
            <mxPoint x="8284.75" y="3838" as="targetPoint" />
            <Array as="points">
              <mxPoint x="8619.75" y="3898" />
              <mxPoint x="8774.75" y="3898" />
            </Array>
          </mxGeometry>
        </mxCell>
        <mxCell id="9kD-dyZorlcXehqhK6V_-83" value="" style="endArrow=block;endSize=16;endFill=0;html=1;rounded=0;entryX=0.5;entryY=1;entryDx=0;entryDy=0;" parent="1" target="9kD-dyZorlcXehqhK6V_-79" edge="1">
          <mxGeometry width="160" relative="1" as="geometry">
            <mxPoint x="8904.75" y="3960" as="sourcePoint" />
            <mxPoint x="8284.75" y="3838" as="targetPoint" />
            <Array as="points">
              <mxPoint x="8904.75" y="3898" />
              <mxPoint x="8774.75" y="3898" />
            </Array>
          </mxGeometry>
        </mxCell>
        <mxCell id="9kD-dyZorlcXehqhK6V_-84" value="" style="endArrow=none;html=1;rounded=0;entryX=0.79;entryY=0.846;entryDx=0;entryDy=0;entryPerimeter=0;exitX=0.04;exitY=0.846;exitDx=0;exitDy=0;exitPerimeter=0;" parent="1" edge="1">
          <mxGeometry width="50" height="50" relative="1" as="geometry">
            <mxPoint x="8463" y="4068.08" as="sourcePoint" />
            <mxPoint x="9000" y="4068" as="targetPoint" />
          </mxGeometry>
        </mxCell>
        <mxCell id="9kD-dyZorlcXehqhK6V_-85" value="" style="edgeStyle=orthogonalEdgeStyle;rounded=0;orthogonalLoop=1;jettySize=auto;html=1;" parent="1" source="9kD-dyZorlcXehqhK6V_-86" target="9kD-dyZorlcXehqhK6V_-87" edge="1">
          <mxGeometry relative="1" as="geometry" />
        </mxCell>
        <mxCell id="9kD-dyZorlcXehqhK6V_-86" value="&lt;p style=&quot;margin:0px;margin-top:4px;text-align:center;&quot;&gt;&lt;/p&gt;&lt;div style=&quot;height:2px;&quot;&gt;&lt;/div&gt;&lt;div style=&quot;text-align: center;&quot;&gt;&lt;span style=&quot;font-weight: 700; background-color: initial;&quot;&gt;&amp;nbsp;&lt;/span&gt;&lt;span style=&quot;font-weight: 700;&quot;&gt;HV-AX48&lt;/span&gt;&lt;span style=&quot;background-color: initial;&quot;&gt;&lt;b&gt;:&lt;/b&gt;Battery&lt;/span&gt;&lt;/div&gt;&lt;hr size=&quot;1&quot; style=&quot;border-style:solid;&quot;&gt;&lt;div style=&quot;height:2px;&quot;&gt;&lt;div style=&quot;height: 2px;&quot;&gt;&amp;nbsp;&lt;span style=&quot;background-color: initial;&quot;&gt;maker:BOSCH&lt;/span&gt;&lt;/div&gt;&lt;div style=&quot;height: 2px;&quot;&gt;&lt;br&gt;&lt;/div&gt;&lt;div style=&quot;height: 2px;&quot;&gt;&lt;br&gt;&lt;/div&gt;&lt;div style=&quot;height: 2px;&quot;&gt;&lt;br&gt;&lt;/div&gt;&lt;div style=&quot;height: 2px;&quot;&gt;&lt;br&gt;&lt;/div&gt;&lt;div style=&quot;height: 2px;&quot;&gt;&lt;br&gt;&lt;/div&gt;&lt;div style=&quot;height: 2px;&quot;&gt;&lt;br&gt;&lt;/div&gt;&lt;div style=&quot;height: 2px;&quot;&gt;&lt;br&gt;&lt;/div&gt;&lt;div style=&quot;height: 2px;&quot;&gt;&lt;br&gt;&lt;/div&gt;&lt;div style=&quot;height: 2px;&quot;&gt;&lt;div style=&quot;height: 2px;&quot;&gt;&lt;span style=&quot;background-color: initial;&quot;&gt;&amp;nbsp;maxSuppliedPower: 48&lt;/span&gt;&lt;/div&gt;&lt;/div&gt;&lt;/div&gt;" style="verticalAlign=top;align=left;overflow=fill;html=1;whiteSpace=wrap;" parent="1" vertex="1">
          <mxGeometry x="8800" y="4350" width="160" height="80" as="geometry" />
        </mxCell>
        <mxCell id="9kD-dyZorlcXehqhK6V_-87" value="&lt;p style=&quot;margin:0px;margin-top:4px;text-align:center;&quot;&gt;&lt;/p&gt;&lt;div style=&quot;height:2px;&quot;&gt;&lt;/div&gt;&lt;div style=&quot;text-align: center;&quot;&gt;&lt;span style=&quot;font-weight: 700; background-color: initial;&quot;&gt;&amp;nbsp;&lt;/span&gt;&lt;span style=&quot;font-weight: 700;&quot;&gt;BP-XLi-Sports&lt;/span&gt;&lt;span style=&quot;background-color: initial;&quot;&gt;&lt;b&gt;:&lt;/b&gt;Battery Pack&lt;/span&gt;&lt;/div&gt;&lt;hr size=&quot;1&quot; style=&quot;border-style:solid;&quot;&gt;&lt;div style=&quot;height:2px;&quot;&gt;&lt;div style=&quot;height: 2px;&quot;&gt;&amp;nbsp;maker: BOSCH&lt;/div&gt;&lt;div style=&quot;height: 2px;&quot;&gt;&lt;br&gt;&lt;/div&gt;&lt;div style=&quot;height: 2px;&quot;&gt;&lt;br&gt;&lt;/div&gt;&lt;div style=&quot;height: 2px;&quot;&gt;&lt;br&gt;&lt;/div&gt;&lt;div style=&quot;height: 2px;&quot;&gt;&lt;br&gt;&lt;/div&gt;&lt;div style=&quot;height: 2px;&quot;&gt;&lt;br&gt;&lt;/div&gt;&lt;div style=&quot;height: 2px;&quot;&gt;&lt;br&gt;&lt;/div&gt;&lt;div style=&quot;height: 2px;&quot;&gt;&lt;br&gt;&lt;/div&gt;&lt;div style=&quot;height: 2px;&quot;&gt;&lt;br&gt;&lt;/div&gt;&lt;div style=&quot;height: 2px;&quot;&gt;&amp;nbsp;safetyLevel: ASIL_C&lt;br&gt;&lt;/div&gt;&lt;div style=&quot;height: 2px;&quot;&gt;&lt;br&gt;&lt;/div&gt;&lt;div style=&quot;height: 2px;&quot;&gt;&lt;br&gt;&lt;/div&gt;&lt;div style=&quot;height: 2px;&quot;&gt;&lt;br&gt;&lt;/div&gt;&lt;div style=&quot;height: 2px;&quot;&gt;&lt;br&gt;&lt;/div&gt;&lt;div style=&quot;height: 2px;&quot;&gt;&lt;br&gt;&lt;/div&gt;&lt;div style=&quot;height: 2px;&quot;&gt;&lt;br&gt;&lt;/div&gt;&lt;div style=&quot;height: 2px;&quot;&gt;&lt;br&gt;&lt;/div&gt;&lt;div style=&quot;height: 2px;&quot;&gt;&lt;br&gt;&lt;/div&gt;&lt;div style=&quot;height: 2px;&quot;&gt;&lt;br&gt;&lt;/div&gt;&lt;div style=&quot;height: 2px;&quot;&gt;&amp;nbsp;maxSuppliedPower: 96&lt;br&gt;&lt;/div&gt;&lt;div style=&quot;height: 2px;&quot;&gt;&lt;br&gt;&lt;/div&gt;&lt;div style=&quot;height: 2px;&quot;&gt;&lt;br&gt;&lt;/div&gt;&lt;div style=&quot;height: 2px;&quot;&gt;&lt;br&gt;&lt;/div&gt;&lt;div style=&quot;height: 2px;&quot;&gt;&lt;br&gt;&lt;/div&gt;&lt;div style=&quot;height: 2px;&quot;&gt;&lt;br&gt;&lt;/div&gt;&lt;div style=&quot;height: 2px;&quot;&gt;&lt;br&gt;&lt;/div&gt;&lt;div style=&quot;height: 2px;&quot;&gt;&lt;br&gt;&lt;/div&gt;&lt;div style=&quot;height: 2px;&quot;&gt;&lt;br&gt;&lt;/div&gt;&lt;div style=&quot;height: 2px;&quot;&gt;&lt;span style=&quot;background-color: initial;&quot;&gt;&amp;nbsp;protocol:&amp;nbsp;&lt;/span&gt;&lt;span style=&quot;background-color: initial;&quot;&gt;BMS&lt;/span&gt;&lt;br&gt;&lt;/div&gt;&lt;div style=&quot;height: 2px;&quot;&gt;&lt;span style=&quot;background-color: initial;&quot;&gt;&lt;br&gt;&lt;/span&gt;&lt;/div&gt;&lt;div style=&quot;height: 2px;&quot;&gt;&lt;span style=&quot;background-color: initial;&quot;&gt;&lt;br&gt;&lt;/span&gt;&lt;/div&gt;&lt;div style=&quot;height: 2px;&quot;&gt;&lt;span style=&quot;background-color: initial;&quot;&gt;&lt;br&gt;&lt;/span&gt;&lt;/div&gt;&lt;div style=&quot;height: 2px;&quot;&gt;&lt;span style=&quot;background-color: initial;&quot;&gt;&lt;br&gt;&lt;/span&gt;&lt;/div&gt;&lt;div style=&quot;height: 2px;&quot;&gt;&lt;span style=&quot;background-color: initial;&quot;&gt;&lt;br&gt;&lt;/span&gt;&lt;/div&gt;&lt;div style=&quot;height: 2px;&quot;&gt;&lt;span style=&quot;background-color: initial;&quot;&gt;&lt;br&gt;&lt;/span&gt;&lt;/div&gt;&lt;div style=&quot;height: 2px;&quot;&gt;&lt;span style=&quot;background-color: initial;&quot;&gt;&lt;br&gt;&lt;/span&gt;&lt;/div&gt;&lt;div style=&quot;height: 2px;&quot;&gt;&lt;br&gt;&lt;/div&gt;&lt;div style=&quot;height: 2px;&quot;&gt;&amp;nbsp;&lt;span style=&quot;background-color: initial;&quot;&gt;rawMaterial:&amp;nbsp;&lt;/span&gt;&lt;span style=&quot;background-color: initial;&quot;&gt;Lithium&lt;/span&gt;&lt;/div&gt;&lt;/div&gt;" style="verticalAlign=top;align=left;overflow=fill;html=1;whiteSpace=wrap;" parent="1" vertex="1">
          <mxGeometry x="8770" y="4142" width="220" height="130" as="geometry" />
        </mxCell>
        <mxCell id="9kD-dyZorlcXehqhK6V_-88" value="" style="endArrow=diamondThin;endFill=1;endSize=24;html=1;rounded=0;entryX=1;entryY=0.5;entryDx=0;entryDy=0;exitX=0;exitY=0.5;exitDx=0;exitDy=0;" parent="1" source="9kD-dyZorlcXehqhK6V_-87" target="9kD-dyZorlcXehqhK6V_-96" edge="1">
          <mxGeometry width="160" relative="1" as="geometry">
            <mxPoint x="8489.5" y="4341" as="sourcePoint" />
            <mxPoint x="8616.5" y="4206" as="targetPoint" />
          </mxGeometry>
        </mxCell>
        <mxCell id="9kD-dyZorlcXehqhK6V_-89" value="1" style="edgeLabel;html=1;align=center;verticalAlign=middle;resizable=0;points=[];" parent="9kD-dyZorlcXehqhK6V_-88" connectable="0" vertex="1">
          <mxGeometry x="-0.8453" y="-1" relative="1" as="geometry">
            <mxPoint y="-8" as="offset" />
          </mxGeometry>
        </mxCell>
        <mxCell id="9kD-dyZorlcXehqhK6V_-90" value="" style="endArrow=diamondThin;endFill=1;endSize=24;html=1;rounded=0;entryX=0.5;entryY=1;entryDx=0;entryDy=0;exitX=0.5;exitY=0;exitDx=0;exitDy=0;" parent="1" source="9kD-dyZorlcXehqhK6V_-86" target="9kD-dyZorlcXehqhK6V_-87" edge="1">
          <mxGeometry width="160" relative="1" as="geometry">
            <mxPoint x="8489.5" y="4341" as="sourcePoint" />
            <mxPoint x="8489.5" y="4252" as="targetPoint" />
            <Array as="points" />
          </mxGeometry>
        </mxCell>
        <mxCell id="9kD-dyZorlcXehqhK6V_-91" value="2" style="edgeLabel;html=1;align=center;verticalAlign=middle;resizable=0;points=[];" parent="9kD-dyZorlcXehqhK6V_-90" connectable="0" vertex="1">
          <mxGeometry x="-0.697" y="1" relative="1" as="geometry">
            <mxPoint x="8" as="offset" />
          </mxGeometry>
        </mxCell>
        <mxCell id="9kD-dyZorlcXehqhK6V_-92" value="&lt;span style=&quot;font-weight: 700; background-color: initial;&quot;&gt;Battery&lt;/span&gt;" style="html=1;whiteSpace=wrap;" parent="1" vertex="1">
          <mxGeometry x="8849.25" y="3955" width="110" height="50" as="geometry" />
        </mxCell>
        <mxCell id="9kD-dyZorlcXehqhK6V_-93" value="&lt;span style=&quot;font-weight: 700; background-color: initial;&quot;&gt;Battery Pack&lt;/span&gt;" style="html=1;whiteSpace=wrap;" parent="1" vertex="1">
          <mxGeometry x="8564.75" y="3956" width="110" height="50" as="geometry" />
        </mxCell>
        <mxCell id="9kD-dyZorlcXehqhK6V_-94" value="Bosch" style="text;html=1;align=center;verticalAlign=middle;whiteSpace=wrap;rounded=0;fontStyle=1;fontSize=23;" parent="1" vertex="1">
          <mxGeometry x="8664" y="3396" width="130" height="46" as="geometry" />
        </mxCell>
        <mxCell id="9kD-dyZorlcXehqhK6V_-95" value="V-SUM (Symmetric)" style="text;html=1;align=center;verticalAlign=middle;whiteSpace=wrap;rounded=0;fontStyle=1;fontSize=23;" parent="1" vertex="1">
          <mxGeometry x="8232.5" y="3300" width="135" height="46" as="geometry" />
        </mxCell>
        <mxCell id="9kD-dyZorlcXehqhK6V_-96" value="&lt;p style=&quot;margin:0px;margin-top:4px;text-align:center;&quot;&gt;&lt;/p&gt;&lt;div style=&quot;height:2px;&quot;&gt;&lt;/div&gt;&lt;div style=&quot;text-align: center;&quot;&gt;&lt;span style=&quot;font-weight: 700; background-color: initial;&quot;&gt;&lt;i&gt;&amp;nbsp;&lt;/i&gt;EC&lt;/span&gt;&lt;span style=&quot;background-color: initial;&quot;&gt;&lt;b&gt;:&lt;/b&gt;ECar&lt;/span&gt;&lt;/div&gt;&lt;hr size=&quot;1&quot; style=&quot;border-style:solid;&quot;&gt;&lt;div style=&quot;height:2px;&quot;&gt;&lt;div style=&quot;height: 2px;&quot;&gt;&amp;nbsp;maker: ??&lt;/div&gt;&lt;div style=&quot;height: 2px;&quot;&gt;&lt;br&gt;&lt;/div&gt;&lt;div style=&quot;height: 2px;&quot;&gt;&lt;br&gt;&lt;/div&gt;&lt;div style=&quot;height: 2px;&quot;&gt;&lt;br&gt;&lt;/div&gt;&lt;div style=&quot;height: 2px;&quot;&gt;&lt;br&gt;&lt;/div&gt;&lt;div style=&quot;height: 2px;&quot;&gt;&lt;br&gt;&lt;/div&gt;&lt;div style=&quot;height: 2px;&quot;&gt;&lt;br&gt;&lt;/div&gt;&lt;div style=&quot;height: 2px;&quot;&gt;&lt;br&gt;&lt;/div&gt;&lt;div style=&quot;height: 2px;&quot;&gt;&amp;nbsp;&lt;span style=&quot;background-color: initial;&quot;&gt;protocol: ??&lt;/span&gt;&lt;/div&gt;&lt;/div&gt;" style="verticalAlign=top;align=left;overflow=fill;html=1;whiteSpace=wrap;" parent="1" vertex="1">
          <mxGeometry x="8468" y="4170" width="140" height="72" as="geometry" />
        </mxCell>
        <mxCell id="9kD-dyZorlcXehqhK6V_-97" value="&lt;span style=&quot;font-weight: 700; background-color: initial;&quot;&gt;Battery Pack&lt;/span&gt;" style="html=1;whiteSpace=wrap;" parent="1" vertex="1">
          <mxGeometry x="8129" y="3950" width="110" height="50" as="geometry" />
        </mxCell>
        <mxCell id="9kD-dyZorlcXehqhK6V_-98" value="" style="endArrow=block;endSize=16;endFill=0;html=1;rounded=0;entryX=0.5;entryY=1;entryDx=0;entryDy=0;exitX=0.5;exitY=0;exitDx=0;exitDy=0;" parent="1" source="9kD-dyZorlcXehqhK6V_-97" target="9kD-dyZorlcXehqhK6V_-56" edge="1">
          <mxGeometry width="160" relative="1" as="geometry">
            <mxPoint x="7784" y="3968" as="sourcePoint" />
            <mxPoint x="7784" y="3856" as="targetPoint" />
          </mxGeometry>
        </mxCell>
        <mxCell id="9kD-dyZorlcXehqhK6V_-99" value="&lt;b&gt;&lt;i&gt;CarPart&lt;/i&gt;&lt;/b&gt;" style="html=1;whiteSpace=wrap;" parent="1" vertex="1">
          <mxGeometry x="8720" y="3639" width="110" height="50" as="geometry" />
        </mxCell>
        <mxCell id="9kD-dyZorlcXehqhK6V_-100" value="&lt;b&gt;ECar&lt;/b&gt;" style="html=1;whiteSpace=wrap;" parent="1" vertex="1">
          <mxGeometry x="8498" y="3639" width="110" height="50" as="geometry" />
        </mxCell>
        <mxCell id="9kD-dyZorlcXehqhK6V_-101" value="&lt;p style=&quot;margin:0px;margin-top:4px;text-align:center;&quot;&gt;&lt;/p&gt;&lt;div style=&quot;height:2px;&quot;&gt;&lt;/div&gt;&lt;span style=&quot;font-weight: 700;&quot;&gt;&lt;div style=&quot;text-align: center;&quot;&gt;&lt;span style=&quot;background-color: initial;&quot;&gt;&amp;nbsp;&lt;i&gt;Product&lt;/i&gt;&lt;/span&gt;&lt;/div&gt;&lt;/span&gt;&lt;hr size=&quot;1&quot; style=&quot;border-style:solid;&quot;&gt;&lt;div style=&quot;height:2px;&quot;&gt;&lt;div style=&quot;height: 2px;&quot;&gt;&amp;nbsp;maker: String&lt;/div&gt;&lt;div style=&quot;height: 2px;&quot;&gt;&lt;br&gt;&lt;/div&gt;&lt;div style=&quot;height: 2px;&quot;&gt;&lt;br&gt;&lt;/div&gt;&lt;div style=&quot;height: 2px;&quot;&gt;&lt;br&gt;&lt;/div&gt;&lt;div style=&quot;height: 2px;&quot;&gt;&lt;br&gt;&lt;/div&gt;&lt;div style=&quot;height: 2px;&quot;&gt;&lt;br&gt;&lt;/div&gt;&lt;div style=&quot;height: 2px;&quot;&gt;&lt;br&gt;&lt;/div&gt;&lt;div style=&quot;height: 2px;&quot;&gt;&lt;br&gt;&lt;/div&gt;&lt;div style=&quot;height: 2px;&quot;&gt;&lt;br&gt;&lt;/div&gt;&lt;div style=&quot;height: 2px;&quot;&gt;&amp;nbsp;&lt;span style=&quot;background-color: initial;&quot;&gt;protocol: String&lt;/span&gt;&lt;/div&gt;&lt;/div&gt;" style="verticalAlign=top;align=left;overflow=fill;html=1;whiteSpace=wrap;" parent="1" vertex="1">
          <mxGeometry x="8655" y="3486" width="140" height="74" as="geometry" />
        </mxCell>
        <mxCell id="9kD-dyZorlcXehqhK6V_-102" value="" style="endArrow=block;endSize=16;endFill=0;html=1;rounded=0;entryX=0.5;entryY=1;entryDx=0;entryDy=0;exitX=0.5;exitY=0;exitDx=0;exitDy=0;" parent="1" source="9kD-dyZorlcXehqhK6V_-100" target="9kD-dyZorlcXehqhK6V_-101" edge="1">
          <mxGeometry width="160" relative="1" as="geometry">
            <mxPoint x="8525" y="3690.17" as="sourcePoint" />
            <mxPoint x="8685" y="3690.17" as="targetPoint" />
            <Array as="points">
              <mxPoint x="8553" y="3610" />
              <mxPoint x="8725" y="3610" />
            </Array>
          </mxGeometry>
        </mxCell>
        <mxCell id="9kD-dyZorlcXehqhK6V_-103" value="" style="endArrow=block;endSize=16;endFill=0;html=1;rounded=0;exitX=0.5;exitY=0;exitDx=0;exitDy=0;entryX=0.5;entryY=1;entryDx=0;entryDy=0;" parent="1" source="9kD-dyZorlcXehqhK6V_-99" target="9kD-dyZorlcXehqhK6V_-101" edge="1">
          <mxGeometry width="160" relative="1" as="geometry">
            <mxPoint x="8705" y="3810" as="sourcePoint" />
            <mxPoint x="8905" y="3677.83" as="targetPoint" />
            <Array as="points">
              <mxPoint x="8775" y="3610" />
              <mxPoint x="8725" y="3610" />
            </Array>
          </mxGeometry>
        </mxCell>
        <mxCell id="9kD-dyZorlcXehqhK6V_-104" value="" style="endArrow=diamondThin;endFill=1;endSize=24;html=1;rounded=0;entryX=1;entryY=0.5;entryDx=0;entryDy=0;exitX=0;exitY=0.5;exitDx=0;exitDy=0;" parent="1" source="9kD-dyZorlcXehqhK6V_-99" target="9kD-dyZorlcXehqhK6V_-100" edge="1">
          <mxGeometry width="160" relative="1" as="geometry">
            <mxPoint x="8275" y="3676" as="sourcePoint" />
            <mxPoint x="8435" y="3676" as="targetPoint" />
          </mxGeometry>
        </mxCell>
        <mxCell id="9kD-dyZorlcXehqhK6V_-105" value="&lt;font style=&quot;font-size: 15px;&quot;&gt;*&lt;/font&gt;" style="edgeLabel;html=1;align=center;verticalAlign=middle;resizable=0;points=[];" parent="9kD-dyZorlcXehqhK6V_-104" connectable="0" vertex="1">
          <mxGeometry x="-0.8074" relative="1" as="geometry">
            <mxPoint y="-12" as="offset" />
          </mxGeometry>
        </mxCell>
        <mxCell id="9kD-dyZorlcXehqhK6V_-106" value="" style="endArrow=block;endSize=16;endFill=0;html=1;rounded=0;entryX=0.5;entryY=1;entryDx=0;entryDy=0;exitX=0.5;exitY=0;exitDx=0;exitDy=0;" parent="1" source="9kD-dyZorlcXehqhK6V_-79" target="9kD-dyZorlcXehqhK6V_-99" edge="1">
          <mxGeometry width="160" relative="1" as="geometry">
            <mxPoint x="8270" y="3960" as="sourcePoint" />
            <mxPoint x="8270" y="3850" as="targetPoint" />
            <Array as="points" />
          </mxGeometry>
        </mxCell>
        <mxCell id="9kD-dyZorlcXehqhK6V_-107" value="&lt;div&gt;&lt;b&gt;EMS:&amp;nbsp;&lt;/b&gt;&lt;span style=&quot;background-color: initial;&quot;&gt;Energy Management Systems (EMS) Protocols&lt;/span&gt;&lt;/div&gt;&lt;div style=&quot;font-weight: bold;&quot;&gt;&lt;b&gt;BMS:&amp;nbsp;&lt;/b&gt;&lt;span style=&quot;background-color: initial; font-weight: normal;&quot;&gt;Battery Management System (BMS) Protocols&lt;/span&gt;&lt;/div&gt;&lt;div style=&quot;&quot;&gt;&lt;b&gt;LIN:&amp;nbsp;&lt;/b&gt;Local Interconnect Network&lt;span style=&quot;font-weight: normal; background-color: initial;&quot;&gt;&lt;br&gt;&lt;/span&gt;&lt;/div&gt;&lt;div style=&quot;&quot;&gt;&lt;b style=&quot;background-color: initial;&quot;&gt;-------------------------------------------------------------------------&lt;/b&gt;&lt;br&gt;&lt;/div&gt;&lt;b&gt;Consistency Preservation Rules (CPR):&amp;nbsp;&lt;/b&gt;&lt;div&gt;- BatteryPack with the name &quot;BoughtInBP&quot; in model &quot;BMW&quot; is linked to BatteryPack with the name &quot;BP-XLi-Sports&quot; in model &quot;Bosch&quot;&lt;div&gt;&lt;br&gt;&lt;/div&gt;&lt;div&gt;&lt;b&gt;Consistency Relations:&amp;nbsp;&lt;/b&gt;&lt;/div&gt;&lt;div&gt;- CR1: For all linked BatteryPacks: &quot;sum of all connected maxUsedPower must be less than the sum of all connected maxSuppliedPower&quot;&lt;div&gt;- CR2:&amp;nbsp;&lt;span style=&quot;background-color: initial;&quot;&gt;For all linked BatteryPacks:&lt;/span&gt;&lt;span style=&quot;background-color: initial;&quot;&gt;&amp;nbsp;&quot;their annotated safety level must be equal&quot;&lt;/span&gt;&lt;/div&gt;&lt;/div&gt;&lt;div&gt;&lt;span style=&quot;background-color: initial;&quot;&gt;- CR3: Both Power consumers and Supplier use a compatible protocol&lt;/span&gt;&lt;/div&gt;&lt;/div&gt;&lt;div&gt;&lt;br&gt;&lt;/div&gt;&lt;div&gt;&lt;b&gt;Confidential data/information:&lt;/b&gt;&lt;br&gt;&lt;/div&gt;&lt;div&gt;&lt;div&gt;- Related to consistency relations: possible power attributes of single elements/devices (but not of the overall sums!)&lt;/div&gt;&lt;div&gt;- Optional: we could also declare the safety Level as confidential to make the check more difficult, but this might not be really realistic. In addition, we could also add additional internal values, like costs, as confidential data, which would make more sense in a real scenario (instead of hidden maxSuppliedPower), but then the example would not be minimal anymore.&amp;nbsp;&lt;/div&gt;&lt;/div&gt;&lt;div&gt;&lt;b&gt;&lt;br&gt;&lt;/b&gt;&lt;/div&gt;&lt;div&gt;&lt;b&gt;Possible stages of extension&lt;/b&gt; (the example above would be v0 - minimal for the purpose of a simple consistency check on basic data):&lt;/div&gt;&lt;div&gt;- v1: Add a third party, e.g., a second supplier for a part of the MultiMedia. Getting (confidential) data from three parties (the maxUsedPower of the new MultiMedia part from the third party) might be more difficult then only a direct check between two parties. This would still be minimal in regard to the purpose of having a three-party-relation.&lt;/div&gt;&lt;div&gt;- v2: Add behavior-based relations that need a simulation approach for checking. This would still be minimal in regard to the purpose if having a behavior-based relation.&lt;/div&gt;&lt;div&gt;&lt;br&gt;&lt;/div&gt;" style="text;html=1;align=left;verticalAlign=top;whiteSpace=wrap;rounded=0;fontSize=16;fillColor=#f5f5f5;fontColor=#333333;strokeColor=#666666;" parent="1" vertex="1">
          <mxGeometry x="7519" y="4599" width="1560" height="421" as="geometry" />
        </mxCell>
        <mxCell id="9kD-dyZorlcXehqhK6V_-108" value="&lt;b&gt;&lt;i&gt;CarPart&lt;/i&gt;&lt;/b&gt;" style="html=1;whiteSpace=wrap;" parent="1" vertex="1">
          <mxGeometry x="8074" y="3632" width="110" height="50" as="geometry" />
        </mxCell>
        <mxCell id="9kD-dyZorlcXehqhK6V_-118" value="&lt;b style=&quot;font-size: 15px;&quot;&gt;&lt;font color=&quot;#ff9933&quot; style=&quot;font-size: 15px;&quot;&gt;Metamodel level&lt;/font&gt;&lt;/b&gt;" style="text;html=1;align=center;verticalAlign=middle;whiteSpace=wrap;rounded=0;rotation=-90;fontSize=15;" parent="1" vertex="1">
          <mxGeometry x="7485" y="3743" width="140" height="30" as="geometry" />
        </mxCell>
        <mxCell id="9kD-dyZorlcXehqhK6V_-119" value="&lt;b style=&quot;font-size: 15px;&quot;&gt;&lt;font color=&quot;#ff9933&quot; style=&quot;font-size: 15px;&quot;&gt;Model (instance) level&lt;/font&gt;&lt;/b&gt;" style="text;html=1;align=center;verticalAlign=middle;whiteSpace=wrap;rounded=0;rotation=-90;fontSize=15;" parent="1" vertex="1">
          <mxGeometry x="7467.5" y="4215.5" width="165" height="30" as="geometry" />
        </mxCell>
        <mxCell id="9kD-dyZorlcXehqhK6V_-120" value="&lt;p style=&quot;margin:0px;margin-top:4px;text-align:center;&quot;&gt;&lt;/p&gt;&lt;div style=&quot;height:2px;&quot;&gt;&lt;/div&gt;&lt;div style=&quot;text-align: center;&quot;&gt;&lt;span style=&quot;font-weight: 700; background-color: initial;&quot;&gt;&amp;nbsp;BMW4er&lt;/span&gt;&lt;span style=&quot;background-color: initial;&quot;&gt;&lt;b&gt;:&lt;/b&gt;ECar&lt;/span&gt;&lt;/div&gt;&lt;hr size=&quot;1&quot; style=&quot;border-style:solid;&quot;&gt;&lt;div style=&quot;height:2px;&quot;&gt;&lt;div style=&quot;height: 2px;&quot;&gt;&amp;nbsp;maker: BMW&lt;/div&gt;&lt;div style=&quot;height: 2px;&quot;&gt;&lt;br&gt;&lt;/div&gt;&lt;div style=&quot;height: 2px;&quot;&gt;&lt;br&gt;&lt;/div&gt;&lt;div style=&quot;height: 2px;&quot;&gt;&lt;br&gt;&lt;/div&gt;&lt;div style=&quot;height: 2px;&quot;&gt;&lt;br&gt;&lt;/div&gt;&lt;div style=&quot;height: 2px;&quot;&gt;&lt;br&gt;&lt;/div&gt;&lt;div style=&quot;height: 2px;&quot;&gt;&lt;br&gt;&lt;/div&gt;&lt;div style=&quot;height: 2px;&quot;&gt;&lt;br&gt;&lt;/div&gt;&lt;div style=&quot;height: 2px;&quot;&gt;&lt;br&gt;&lt;/div&gt;&lt;div style=&quot;height: 2px;&quot;&gt;&amp;nbsp;protocol: EMS&lt;br&gt;&lt;/div&gt;&lt;div style=&quot;height: 2px;&quot;&gt;&lt;br&gt;&lt;/div&gt;&lt;div style=&quot;height: 2px;&quot;&gt;&lt;br&gt;&lt;/div&gt;&lt;div style=&quot;height: 2px;&quot;&gt;&lt;br&gt;&lt;/div&gt;&lt;div style=&quot;height: 2px;&quot;&gt;&lt;br&gt;&lt;/div&gt;&lt;div style=&quot;height: 2px;&quot;&gt;&lt;br&gt;&lt;/div&gt;&lt;div style=&quot;height: 2px;&quot;&gt;&lt;br&gt;&lt;/div&gt;&lt;div style=&quot;height: 2px;&quot;&gt;&lt;br&gt;&lt;/div&gt;&lt;div style=&quot;height: 2px;&quot;&gt;&amp;nbsp;&lt;/div&gt;&lt;/div&gt;" style="verticalAlign=top;align=left;overflow=fill;html=1;whiteSpace=wrap;" parent="1" vertex="1">
          <mxGeometry x="6600" y="4161.5" width="180" height="78.5" as="geometry" />
        </mxCell>
        <mxCell id="9kD-dyZorlcXehqhK6V_-121" value="&lt;p style=&quot;margin:0px;margin-top:4px;text-align:center;&quot;&gt;&lt;/p&gt;&lt;div style=&quot;height:2px;&quot;&gt;&lt;/div&gt;&lt;div style=&quot;text-align: center;&quot;&gt;&lt;span style=&quot;font-weight: 700; background-color: initial;&quot;&gt;&amp;nbsp;&lt;/span&gt;&lt;span style=&quot;background-color: initial; text-align: left;&quot;&gt;&lt;b&gt;eDrive50&lt;/b&gt;&lt;/span&gt;&lt;span style=&quot;background-color: initial;&quot;&gt;&lt;b&gt;:&lt;/b&gt;Engine&lt;/span&gt;&lt;/div&gt;&lt;hr size=&quot;1&quot; style=&quot;border-style:solid;&quot;&gt;&lt;div style=&quot;height:2px;&quot;&gt;&lt;div style=&quot;height: 2px;&quot;&gt;&amp;nbsp;&lt;span style=&quot;background-color: initial;&quot;&gt;maker: BMW&lt;/span&gt;&lt;/div&gt;&lt;div style=&quot;height: 2px;&quot;&gt;&lt;br&gt;&lt;/div&gt;&lt;div style=&quot;height: 2px;&quot;&gt;&lt;br&gt;&lt;/div&gt;&lt;div style=&quot;height: 2px;&quot;&gt;&lt;br&gt;&lt;/div&gt;&lt;div style=&quot;height: 2px;&quot;&gt;&lt;br&gt;&lt;/div&gt;&lt;div style=&quot;height: 2px;&quot;&gt;&lt;br&gt;&lt;/div&gt;&lt;div style=&quot;height: 2px;&quot;&gt;&lt;br&gt;&lt;/div&gt;&lt;div style=&quot;height: 2px;&quot;&gt;&lt;br&gt;&lt;/div&gt;&lt;div style=&quot;height: 2px;&quot;&gt;&lt;br&gt;&lt;/div&gt;&lt;div style=&quot;height: 2px;&quot;&gt;&lt;div style=&quot;height: 2px;&quot;&gt;&lt;span style=&quot;background-color: initial;&quot;&gt;&amp;nbsp;maxUsedPower: 60&lt;/span&gt;&lt;/div&gt;&lt;div style=&quot;height: 2px;&quot;&gt;&lt;span style=&quot;background-color: initial;&quot;&gt;&lt;br&gt;&lt;/span&gt;&lt;/div&gt;&lt;div style=&quot;height: 2px;&quot;&gt;&lt;span style=&quot;background-color: initial;&quot;&gt;&lt;br&gt;&lt;/span&gt;&lt;/div&gt;&lt;div style=&quot;height: 2px;&quot;&gt;&lt;span style=&quot;background-color: initial;&quot;&gt;&lt;br&gt;&lt;/span&gt;&lt;/div&gt;&lt;div style=&quot;height: 2px;&quot;&gt;&lt;span style=&quot;background-color: initial;&quot;&gt;&lt;br&gt;&lt;/span&gt;&lt;/div&gt;&lt;div style=&quot;height: 2px;&quot;&gt;&lt;span style=&quot;background-color: initial;&quot;&gt;&lt;br&gt;&lt;/span&gt;&lt;/div&gt;&lt;div style=&quot;height: 2px;&quot;&gt;&lt;span style=&quot;background-color: initial;&quot;&gt;&lt;br&gt;&lt;/span&gt;&lt;/div&gt;&lt;div style=&quot;height: 2px;&quot;&gt;&lt;span style=&quot;background-color: initial;&quot;&gt;&lt;br&gt;&lt;/span&gt;&lt;/div&gt;&lt;div style=&quot;height: 2px;&quot;&gt;&lt;span style=&quot;background-color: initial;&quot;&gt;&amp;nbsp;protocol:&amp;nbsp;&lt;/span&gt;&lt;span style=&quot;background-color: initial;&quot;&gt;EMS&lt;/span&gt;&lt;/div&gt;&lt;/div&gt;&lt;/div&gt;" style="verticalAlign=top;align=left;overflow=fill;html=1;whiteSpace=wrap;" parent="1" vertex="1">
          <mxGeometry x="6620" y="4008.5" width="140" height="93" as="geometry" />
        </mxCell>
        <mxCell id="9kD-dyZorlcXehqhK6V_-122" value="&lt;p style=&quot;margin:0px;margin-top:4px;text-align:center;&quot;&gt;&lt;/p&gt;&lt;div style=&quot;height:2px;&quot;&gt;&lt;/div&gt;&lt;div style=&quot;text-align: center;&quot;&gt;&lt;span style=&quot;font-weight: 700; background-color: initial;&quot;&gt;&amp;nbsp;&lt;/span&gt;&lt;span style=&quot;font-weight: 700;&quot;&gt;E90&lt;/span&gt;&lt;span style=&quot;background-color: initial;&quot;&gt;&lt;b&gt;:&lt;/b&gt;EMulti-Media&lt;/span&gt;&lt;/div&gt;&lt;hr size=&quot;1&quot; style=&quot;border-style:solid;&quot;&gt;&lt;div style=&quot;height:2px;&quot;&gt;&lt;div style=&quot;height: 2px;&quot;&gt;&amp;nbsp;&lt;span style=&quot;background-color: initial;&quot;&gt;maker: BMW&lt;/span&gt;&lt;/div&gt;&lt;div style=&quot;height: 2px;&quot;&gt;&lt;br&gt;&lt;/div&gt;&lt;div style=&quot;height: 2px;&quot;&gt;&lt;br&gt;&lt;/div&gt;&lt;div style=&quot;height: 2px;&quot;&gt;&lt;br&gt;&lt;/div&gt;&lt;div style=&quot;height: 2px;&quot;&gt;&lt;br&gt;&lt;/div&gt;&lt;div style=&quot;height: 2px;&quot;&gt;&lt;br&gt;&lt;/div&gt;&lt;div style=&quot;height: 2px;&quot;&gt;&lt;br&gt;&lt;/div&gt;&lt;div style=&quot;height: 2px;&quot;&gt;&lt;br&gt;&lt;/div&gt;&lt;div style=&quot;height: 2px;&quot;&gt;&lt;br&gt;&lt;/div&gt;&lt;div style=&quot;height: 2px;&quot;&gt;&lt;div style=&quot;height: 2px;&quot;&gt;&lt;span style=&quot;background-color: initial;&quot;&gt;&amp;nbsp;maxUsedPower: 10&lt;/span&gt;&lt;/div&gt;&lt;div style=&quot;height: 2px;&quot;&gt;&lt;span style=&quot;background-color: initial;&quot;&gt;&lt;br&gt;&lt;/span&gt;&lt;/div&gt;&lt;div style=&quot;height: 2px;&quot;&gt;&lt;span style=&quot;background-color: initial;&quot;&gt;&lt;br&gt;&lt;/span&gt;&lt;/div&gt;&lt;div style=&quot;height: 2px;&quot;&gt;&lt;span style=&quot;background-color: initial;&quot;&gt;&lt;br&gt;&lt;/span&gt;&lt;/div&gt;&lt;div style=&quot;height: 2px;&quot;&gt;&lt;span style=&quot;background-color: initial;&quot;&gt;&lt;br&gt;&lt;/span&gt;&lt;/div&gt;&lt;div style=&quot;height: 2px;&quot;&gt;&lt;span style=&quot;background-color: initial;&quot;&gt;&lt;br&gt;&lt;/span&gt;&lt;/div&gt;&lt;div style=&quot;height: 2px;&quot;&gt;&lt;span style=&quot;background-color: initial;&quot;&gt;&lt;br&gt;&lt;/span&gt;&lt;/div&gt;&lt;div style=&quot;height: 2px;&quot;&gt;&lt;span style=&quot;background-color: initial;&quot;&gt;&lt;br&gt;&lt;/span&gt;&lt;/div&gt;&lt;div style=&quot;height: 2px;&quot;&gt;&lt;span style=&quot;background-color: initial;&quot;&gt;&lt;br&gt;&lt;/span&gt;&lt;/div&gt;&lt;div style=&quot;height: 2px;&quot;&gt;&lt;span style=&quot;background-color: initial;&quot;&gt;&amp;nbsp;protocol:&amp;nbsp;&lt;/span&gt;&lt;span style=&quot;background-color: initial;&quot;&gt;LIN&lt;/span&gt;&lt;br&gt;&lt;/div&gt;&lt;/div&gt;&lt;/div&gt;" style="verticalAlign=top;align=left;overflow=fill;html=1;whiteSpace=wrap;" parent="1" vertex="1">
          <mxGeometry x="6620" y="4311.5" width="140" height="92" as="geometry" />
        </mxCell>
        <mxCell id="9kD-dyZorlcXehqhK6V_-124" value="" style="endArrow=diamondThin;endFill=1;endSize=24;html=1;rounded=0;entryX=0.5;entryY=0;entryDx=0;entryDy=0;exitX=0.5;exitY=1;exitDx=0;exitDy=0;" parent="1" source="9kD-dyZorlcXehqhK6V_-121" target="9kD-dyZorlcXehqhK6V_-120" edge="1">
          <mxGeometry width="160" relative="1" as="geometry">
            <mxPoint x="6520" y="4216.5" as="sourcePoint" />
            <mxPoint x="6630" y="4216.5" as="targetPoint" />
          </mxGeometry>
        </mxCell>
        <mxCell id="9kD-dyZorlcXehqhK6V_-125" value="1" style="edgeLabel;html=1;align=center;verticalAlign=middle;resizable=0;points=[];" parent="9kD-dyZorlcXehqhK6V_-124" connectable="0" vertex="1">
          <mxGeometry x="-0.7333" y="1" relative="1" as="geometry">
            <mxPoint x="5" as="offset" />
          </mxGeometry>
        </mxCell>
        <mxCell id="9kD-dyZorlcXehqhK6V_-126" value="" style="endArrow=diamondThin;endFill=1;endSize=24;html=1;rounded=0;entryX=0.5;entryY=1;entryDx=0;entryDy=0;exitX=0.5;exitY=0;exitDx=0;exitDy=0;" parent="1" source="9kD-dyZorlcXehqhK6V_-122" target="9kD-dyZorlcXehqhK6V_-120" edge="1">
          <mxGeometry width="160" relative="1" as="geometry">
            <mxPoint x="6700" y="4090.5" as="sourcePoint" />
            <mxPoint x="6700" y="4180.5" as="targetPoint" />
          </mxGeometry>
        </mxCell>
        <mxCell id="9kD-dyZorlcXehqhK6V_-127" value="1" style="edgeLabel;html=1;align=center;verticalAlign=middle;resizable=0;points=[];" parent="9kD-dyZorlcXehqhK6V_-126" connectable="0" vertex="1">
          <mxGeometry x="-0.7303" y="2" relative="1" as="geometry">
            <mxPoint x="8" as="offset" />
          </mxGeometry>
        </mxCell>
        <mxCell id="9kD-dyZorlcXehqhK6V_-128" value="" style="endArrow=diamondThin;endFill=1;endSize=24;html=1;rounded=0;entryX=1;entryY=0.5;entryDx=0;entryDy=0;exitX=0;exitY=0.5;exitDx=0;exitDy=0;" parent="1" source="9kD-dyZorlcXehqhK6V_-135" target="9kD-dyZorlcXehqhK6V_-120" edge="1">
          <mxGeometry width="160" relative="1" as="geometry">
            <mxPoint x="6885" y="4206.25" as="sourcePoint" />
            <mxPoint x="6700" y="4252.5" as="targetPoint" />
          </mxGeometry>
        </mxCell>
        <mxCell id="9kD-dyZorlcXehqhK6V_-129" value="1" style="edgeLabel;html=1;align=center;verticalAlign=middle;resizable=0;points=[];" parent="9kD-dyZorlcXehqhK6V_-128" connectable="0" vertex="1">
          <mxGeometry x="-0.8453" y="-1" relative="1" as="geometry">
            <mxPoint y="-8" as="offset" />
          </mxGeometry>
        </mxCell>
        <mxCell id="9kD-dyZorlcXehqhK6V_-133" value="" style="edgeStyle=orthogonalEdgeStyle;rounded=0;orthogonalLoop=1;jettySize=auto;html=1;" parent="1" source="9kD-dyZorlcXehqhK6V_-134" target="9kD-dyZorlcXehqhK6V_-135" edge="1">
          <mxGeometry relative="1" as="geometry" />
        </mxCell>
        <mxCell id="9kD-dyZorlcXehqhK6V_-134" value="&lt;p style=&quot;margin:0px;margin-top:4px;text-align:center;&quot;&gt;&lt;/p&gt;&lt;div style=&quot;height:2px;&quot;&gt;&lt;/div&gt;&lt;div style=&quot;text-align: center;&quot;&gt;&lt;span style=&quot;font-weight: 700; background-color: initial;&quot;&gt;&amp;nbsp;&lt;/span&gt;&lt;span style=&quot;font-weight: 700;&quot;&gt;HV-AX48&lt;/span&gt;&lt;span style=&quot;background-color: initial;&quot;&gt;&lt;b&gt;:&lt;/b&gt;Battery&lt;/span&gt;&lt;/div&gt;&lt;hr size=&quot;1&quot; style=&quot;border-style:solid;&quot;&gt;&lt;div style=&quot;height:2px;&quot;&gt;&lt;div style=&quot;height: 2px;&quot;&gt;&amp;nbsp;&lt;span style=&quot;background-color: initial;&quot;&gt;maker: BOSCH&lt;/span&gt;&lt;/div&gt;&lt;div style=&quot;height: 2px;&quot;&gt;&lt;br&gt;&lt;/div&gt;&lt;div style=&quot;height: 2px;&quot;&gt;&lt;br&gt;&lt;/div&gt;&lt;div style=&quot;height: 2px;&quot;&gt;&lt;br&gt;&lt;/div&gt;&lt;div style=&quot;height: 2px;&quot;&gt;&lt;br&gt;&lt;/div&gt;&lt;div style=&quot;height: 2px;&quot;&gt;&lt;br&gt;&lt;/div&gt;&lt;div style=&quot;height: 2px;&quot;&gt;&lt;br&gt;&lt;/div&gt;&lt;div style=&quot;height: 2px;&quot;&gt;&lt;br&gt;&lt;/div&gt;&lt;div style=&quot;height: 2px;&quot;&gt;&lt;br&gt;&lt;/div&gt;&lt;div style=&quot;height: 2px;&quot;&gt;&lt;div style=&quot;height: 2px;&quot;&gt;&lt;span style=&quot;background-color: initial;&quot;&gt;&amp;nbsp;maxSuppliedPower: 48&lt;/span&gt;&lt;/div&gt;&lt;/div&gt;&lt;/div&gt;" style="verticalAlign=top;align=left;overflow=fill;html=1;whiteSpace=wrap;" parent="1" vertex="1">
          <mxGeometry x="7010" y="4322" width="160" height="78" as="geometry" />
        </mxCell>
        <mxCell id="9kD-dyZorlcXehqhK6V_-135" value="&lt;p style=&quot;margin:0px;margin-top:4px;text-align:center;&quot;&gt;&lt;/p&gt;&lt;div style=&quot;height:2px;&quot;&gt;&lt;/div&gt;&lt;div style=&quot;text-align: center;&quot;&gt;&lt;span style=&quot;font-weight: 700; background-color: initial;&quot;&gt;&amp;nbsp;&lt;/span&gt;&lt;span style=&quot;font-weight: 700;&quot;&gt;BP-XLi-Sports&lt;/span&gt;&lt;span style=&quot;background-color: initial;&quot;&gt;&lt;b&gt;:&lt;/b&gt;Battery Pack&lt;/span&gt;&lt;/div&gt;&lt;hr size=&quot;1&quot; style=&quot;border-style:solid;&quot;&gt;&lt;div style=&quot;height:2px;&quot;&gt;&lt;div style=&quot;height: 2px;&quot;&gt;&amp;nbsp;maker: BOSCH&lt;/div&gt;&lt;div style=&quot;height: 2px;&quot;&gt;&lt;br&gt;&lt;/div&gt;&lt;div style=&quot;height: 2px;&quot;&gt;&lt;br&gt;&lt;/div&gt;&lt;div style=&quot;height: 2px;&quot;&gt;&lt;br&gt;&lt;/div&gt;&lt;div style=&quot;height: 2px;&quot;&gt;&lt;br&gt;&lt;/div&gt;&lt;div style=&quot;height: 2px;&quot;&gt;&lt;br&gt;&lt;/div&gt;&lt;div style=&quot;height: 2px;&quot;&gt;&lt;br&gt;&lt;/div&gt;&lt;div style=&quot;height: 2px;&quot;&gt;&lt;br&gt;&lt;/div&gt;&lt;div style=&quot;height: 2px;&quot;&gt;&lt;br&gt;&lt;/div&gt;&lt;div style=&quot;height: 2px;&quot;&gt;&amp;nbsp;safetyLevel: ASIL_C&lt;br&gt;&lt;/div&gt;&lt;div style=&quot;height: 2px;&quot;&gt;&lt;br&gt;&lt;/div&gt;&lt;div style=&quot;height: 2px;&quot;&gt;&lt;br&gt;&lt;/div&gt;&lt;div style=&quot;height: 2px;&quot;&gt;&lt;br&gt;&lt;/div&gt;&lt;div style=&quot;height: 2px;&quot;&gt;&lt;br&gt;&lt;/div&gt;&lt;div style=&quot;height: 2px;&quot;&gt;&lt;br&gt;&lt;/div&gt;&lt;div style=&quot;height: 2px;&quot;&gt;&lt;br&gt;&lt;/div&gt;&lt;div style=&quot;height: 2px;&quot;&gt;&lt;br&gt;&lt;/div&gt;&lt;div style=&quot;height: 2px;&quot;&gt;&lt;br&gt;&lt;/div&gt;&lt;div style=&quot;height: 2px;&quot;&gt;&amp;nbsp;maxSuppliedPower: 96&lt;br&gt;&lt;/div&gt;&lt;div style=&quot;height: 2px;&quot;&gt;&lt;br&gt;&lt;/div&gt;&lt;div style=&quot;height: 2px;&quot;&gt;&lt;br&gt;&lt;/div&gt;&lt;div style=&quot;height: 2px;&quot;&gt;&lt;br&gt;&lt;/div&gt;&lt;div style=&quot;height: 2px;&quot;&gt;&lt;br&gt;&lt;/div&gt;&lt;div style=&quot;height: 2px;&quot;&gt;&lt;br&gt;&lt;/div&gt;&lt;div style=&quot;height: 2px;&quot;&gt;&lt;br&gt;&lt;/div&gt;&lt;div style=&quot;height: 2px;&quot;&gt;&lt;br&gt;&lt;/div&gt;&lt;div style=&quot;height: 2px;&quot;&gt;&lt;br&gt;&lt;/div&gt;&lt;div style=&quot;height: 2px;&quot;&gt;&lt;span style=&quot;background-color: initial;&quot;&gt;&amp;nbsp;protocol:&amp;nbsp;&lt;/span&gt;&lt;span style=&quot;background-color: initial;&quot;&gt;BMS&lt;/span&gt;&lt;br&gt;&lt;/div&gt;&lt;div style=&quot;height: 2px;&quot;&gt;&lt;span style=&quot;background-color: initial;&quot;&gt;&lt;br&gt;&lt;/span&gt;&lt;/div&gt;&lt;div style=&quot;height: 2px;&quot;&gt;&lt;span style=&quot;background-color: initial;&quot;&gt;&lt;br&gt;&lt;/span&gt;&lt;/div&gt;&lt;div style=&quot;height: 2px;&quot;&gt;&lt;span style=&quot;background-color: initial;&quot;&gt;&lt;br&gt;&lt;/span&gt;&lt;/div&gt;&lt;div style=&quot;height: 2px;&quot;&gt;&lt;span style=&quot;background-color: initial;&quot;&gt;&lt;br&gt;&lt;/span&gt;&lt;/div&gt;&lt;div style=&quot;height: 2px;&quot;&gt;&lt;span style=&quot;background-color: initial;&quot;&gt;&lt;br&gt;&lt;/span&gt;&lt;/div&gt;&lt;div style=&quot;height: 2px;&quot;&gt;&lt;span style=&quot;background-color: initial;&quot;&gt;&lt;br&gt;&lt;/span&gt;&lt;/div&gt;&lt;div style=&quot;height: 2px;&quot;&gt;&lt;span style=&quot;background-color: initial;&quot;&gt;&lt;br&gt;&lt;/span&gt;&lt;/div&gt;&lt;div style=&quot;height: 2px;&quot;&gt;&lt;span style=&quot;background-color: initial;&quot;&gt;&lt;br&gt;&lt;/span&gt;&lt;/div&gt;&lt;div style=&quot;height: 2px;&quot;&gt;&amp;nbsp;&lt;span style=&quot;background-color: initial;&quot;&gt;rawMaterial:&amp;nbsp;&lt;/span&gt;&lt;span style=&quot;background-color: initial;&quot;&gt;Lithium&lt;/span&gt;&lt;/div&gt;&lt;/div&gt;" style="verticalAlign=top;align=left;overflow=fill;html=1;whiteSpace=wrap;" parent="1" vertex="1">
          <mxGeometry x="6980" y="4139" width="220" height="124" as="geometry" />
        </mxCell>
        <mxCell id="9kD-dyZorlcXehqhK6V_-137" value="" style="endArrow=diamondThin;endFill=1;endSize=24;html=1;rounded=0;entryX=0.5;entryY=1;entryDx=0;entryDy=0;exitX=0.5;exitY=0;exitDx=0;exitDy=0;" parent="1" source="9kD-dyZorlcXehqhK6V_-134" target="9kD-dyZorlcXehqhK6V_-135" edge="1">
          <mxGeometry width="160" relative="1" as="geometry">
            <mxPoint x="6769.5" y="4271" as="sourcePoint" />
            <mxPoint x="6769.5" y="4182" as="targetPoint" />
            <Array as="points" />
          </mxGeometry>
        </mxCell>
        <mxCell id="9kD-dyZorlcXehqhK6V_-138" value="2" style="edgeLabel;html=1;align=center;verticalAlign=middle;resizable=0;points=[];" parent="9kD-dyZorlcXehqhK6V_-137" connectable="0" vertex="1">
          <mxGeometry x="-0.697" y="1" relative="1" as="geometry">
            <mxPoint x="8" as="offset" />
          </mxGeometry>
        </mxCell>
        <mxCell id="Pv3V8jOLx0eQlRmEm6TV-1" value="" style="rounded=1;whiteSpace=wrap;html=1;arcSize=15;" parent="1" vertex="1">
          <mxGeometry x="9200" y="3279" width="1560" height="1271" as="geometry" />
        </mxCell>
        <mxCell id="Pv3V8jOLx0eQlRmEm6TV-2" value="" style="rounded=1;whiteSpace=wrap;html=1;arcSize=15;" parent="1" vertex="1">
          <mxGeometry x="9260" y="3379" width="790" height="1121" as="geometry" />
        </mxCell>
        <mxCell id="Pv3V8jOLx0eQlRmEm6TV-3" value="" style="endArrow=none;html=1;rounded=0;entryX=0.79;entryY=0.846;entryDx=0;entryDy=0;entryPerimeter=0;exitX=0.04;exitY=0.846;exitDx=0;exitDy=0;exitPerimeter=0;" parent="1" edge="1">
          <mxGeometry width="50" height="50" relative="1" as="geometry">
            <mxPoint x="9284" y="3459.08" as="sourcePoint" />
            <mxPoint x="10030" y="3459" as="targetPoint" />
          </mxGeometry>
        </mxCell>
        <mxCell id="Pv3V8jOLx0eQlRmEm6TV-4" value="&lt;b&gt;ECar&lt;/b&gt;" style="html=1;whiteSpace=wrap;" parent="1" vertex="1">
          <mxGeometry x="9464" y="3632" width="110" height="50" as="geometry" />
        </mxCell>
        <mxCell id="Pv3V8jOLx0eQlRmEm6TV-5" value="&lt;p style=&quot;margin:0px;margin-top:4px;text-align:center;&quot;&gt;&lt;/p&gt;&lt;div style=&quot;height:2px;&quot;&gt;&lt;/div&gt;&lt;span style=&quot;font-weight: 700;&quot;&gt;&lt;div style=&quot;text-align: center;&quot;&gt;&lt;span style=&quot;background-color: initial;&quot;&gt;&amp;nbsp;&lt;i&gt;Product&lt;/i&gt;&lt;/span&gt;&lt;/div&gt;&lt;/span&gt;&lt;hr size=&quot;1&quot; style=&quot;border-style:solid;&quot;&gt;&lt;div style=&quot;height:2px;&quot;&gt;&lt;div style=&quot;height: 2px;&quot;&gt;&amp;nbsp;maker: String&lt;/div&gt;&lt;div style=&quot;height: 2px;&quot;&gt;&lt;br&gt;&lt;/div&gt;&lt;div style=&quot;height: 2px;&quot;&gt;&lt;br&gt;&lt;/div&gt;&lt;div style=&quot;height: 2px;&quot;&gt;&lt;br&gt;&lt;/div&gt;&lt;div style=&quot;height: 2px;&quot;&gt;&lt;br&gt;&lt;/div&gt;&lt;div style=&quot;height: 2px;&quot;&gt;&lt;br&gt;&lt;/div&gt;&lt;div style=&quot;height: 2px;&quot;&gt;&lt;br&gt;&lt;/div&gt;&lt;div style=&quot;height: 2px;&quot;&gt;&lt;br&gt;&lt;/div&gt;&lt;div style=&quot;height: 2px;&quot;&gt;&amp;nbsp;&lt;/div&gt;&lt;div style=&quot;height: 2px;&quot;&gt;&amp;nbsp;&lt;span style=&quot;background-color: initial;&quot;&gt;protocol: String&lt;/span&gt;&lt;/div&gt;&lt;div style=&quot;height: 2px;&quot;&gt;&lt;span style=&quot;background-color: initial;&quot;&gt;&lt;br&gt;&lt;/span&gt;&lt;/div&gt;&lt;div style=&quot;height: 2px;&quot;&gt;&lt;span style=&quot;background-color: initial;&quot;&gt;&lt;br&gt;&lt;/span&gt;&lt;/div&gt;&lt;div style=&quot;height: 2px;&quot;&gt;&lt;span style=&quot;background-color: initial;&quot;&gt;&lt;br&gt;&lt;/span&gt;&lt;/div&gt;&lt;div style=&quot;height: 2px;&quot;&gt;&lt;span style=&quot;background-color: initial;&quot;&gt;&lt;br&gt;&lt;/span&gt;&lt;/div&gt;&lt;div style=&quot;height: 2px;&quot;&gt;&lt;span style=&quot;background-color: initial;&quot;&gt;&lt;br&gt;&lt;/span&gt;&lt;/div&gt;&lt;div style=&quot;height: 2px;&quot;&gt;&lt;span style=&quot;background-color: initial;&quot;&gt;&lt;br&gt;&lt;/span&gt;&lt;/div&gt;&lt;div style=&quot;height: 2px;&quot;&gt;&lt;br&gt;&lt;/div&gt;&lt;/div&gt;" style="verticalAlign=top;align=left;overflow=fill;html=1;whiteSpace=wrap;" parent="1" vertex="1">
          <mxGeometry x="9594" y="3479" width="140" height="71" as="geometry" />
        </mxCell>
        <mxCell id="Pv3V8jOLx0eQlRmEm6TV-6" value="" style="endArrow=block;endSize=16;endFill=0;html=1;rounded=0;entryX=0.5;entryY=1;entryDx=0;entryDy=0;exitX=0.5;exitY=0;exitDx=0;exitDy=0;" parent="1" source="Pv3V8jOLx0eQlRmEm6TV-4" target="Pv3V8jOLx0eQlRmEm6TV-5" edge="1">
          <mxGeometry width="160" relative="1" as="geometry">
            <mxPoint x="9464" y="3683.17" as="sourcePoint" />
            <mxPoint x="9624" y="3683.17" as="targetPoint" />
            <Array as="points">
              <mxPoint x="9519" y="3610" />
              <mxPoint x="9664" y="3610" />
            </Array>
          </mxGeometry>
        </mxCell>
        <mxCell id="Pv3V8jOLx0eQlRmEm6TV-7" value="" style="endArrow=block;endSize=16;endFill=0;html=1;rounded=0;exitX=0.5;exitY=0;exitDx=0;exitDy=0;entryX=0.5;entryY=1;entryDx=0;entryDy=0;" parent="1" source="Pv3V8jOLx0eQlRmEm6TV-61" target="Pv3V8jOLx0eQlRmEm6TV-5" edge="1">
          <mxGeometry width="160" relative="1" as="geometry">
            <mxPoint x="9809" y="3632" as="sourcePoint" />
            <mxPoint x="9844" y="3670.83" as="targetPoint" />
            <Array as="points">
              <mxPoint x="9809" y="3610" />
              <mxPoint x="9664" y="3610" />
            </Array>
          </mxGeometry>
        </mxCell>
        <mxCell id="Pv3V8jOLx0eQlRmEm6TV-8" value="&lt;p style=&quot;margin:0px;margin-top:4px;text-align:center;&quot;&gt;&lt;/p&gt;&lt;div style=&quot;height:2px;&quot;&gt;&lt;/div&gt;&lt;span style=&quot;font-weight: 700;&quot;&gt;&lt;div style=&quot;text-align: center;&quot;&gt;&lt;span style=&quot;background-color: initial;&quot;&gt;&amp;nbsp;&lt;i&gt;Power Using Part&lt;/i&gt;&lt;/span&gt;&lt;/div&gt;&lt;/span&gt;&lt;hr size=&quot;1&quot; style=&quot;border-style:solid;&quot;&gt;&lt;div style=&quot;height:2px;&quot;&gt;&lt;div style=&quot;height: 2px;&quot;&gt;&lt;br&gt;&lt;/div&gt;&lt;div style=&quot;height: 2px;&quot;&gt;&lt;br&gt;&lt;/div&gt;&lt;div style=&quot;height: 2px;&quot;&gt;&lt;br&gt;&lt;/div&gt;&lt;div style=&quot;height: 2px;&quot;&gt;&lt;br&gt;&lt;/div&gt;&lt;div style=&quot;height: 2px;&quot;&gt;&lt;div style=&quot;height: 2px;&quot;&gt;&lt;span style=&quot;background-color: initial;&quot;&gt;&amp;nbsp;maxUsedPower:Float&lt;/span&gt;&lt;/div&gt;&lt;/div&gt;&lt;/div&gt;" style="verticalAlign=top;align=left;overflow=fill;html=1;whiteSpace=wrap;" parent="1" vertex="1">
          <mxGeometry x="9479" y="3774" width="140" height="72" as="geometry" />
        </mxCell>
        <mxCell id="Pv3V8jOLx0eQlRmEm6TV-9" value="&lt;p style=&quot;margin:0px;margin-top:4px;text-align:center;&quot;&gt;&lt;/p&gt;&lt;div style=&quot;height:2px;&quot;&gt;&lt;/div&gt;&lt;span style=&quot;font-weight: 700;&quot;&gt;&lt;div style=&quot;text-align: center;&quot;&gt;&lt;span style=&quot;background-color: initial;&quot;&gt;&lt;i&gt;&amp;nbsp;Power Supplying Part&lt;/i&gt;&lt;/span&gt;&lt;/div&gt;&lt;/span&gt;&lt;hr size=&quot;1&quot; style=&quot;border-style:solid;&quot;&gt;&lt;div style=&quot;height:2px;&quot;&gt;&lt;div style=&quot;height: 2px;&quot;&gt;&amp;nbsp;safetyLevel: Enum&lt;/div&gt;&lt;div style=&quot;height: 2px;&quot;&gt;&lt;br&gt;&lt;/div&gt;&lt;div style=&quot;height: 2px;&quot;&gt;&lt;div style=&quot;height: 2px;&quot;&gt;&amp;nbsp;&amp;nbsp;&lt;/div&gt;&lt;div style=&quot;height: 2px;&quot;&gt;&lt;br&gt;&lt;/div&gt;&lt;div style=&quot;height: 2px;&quot;&gt;&lt;br&gt;&lt;/div&gt;&lt;div style=&quot;height: 2px;&quot;&gt;&lt;br&gt;&lt;/div&gt;&lt;div style=&quot;height: 2px;&quot;&gt;&lt;br&gt;&lt;/div&gt;&lt;div style=&quot;height: 2px;&quot;&gt;&lt;br&gt;&lt;/div&gt;&lt;div style=&quot;height: 2px;&quot;&gt;&lt;br&gt;&lt;/div&gt;&amp;nbsp;maxSuppliedPower:Float&lt;/div&gt;&lt;/div&gt;" style="verticalAlign=top;align=left;overflow=fill;html=1;whiteSpace=wrap;" parent="1" vertex="1">
          <mxGeometry x="9794" y="3768" width="140" height="72" as="geometry" />
        </mxCell>
        <mxCell id="Pv3V8jOLx0eQlRmEm6TV-10" value="" style="endArrow=block;endSize=16;endFill=0;html=1;rounded=0;exitX=0.5;exitY=0;exitDx=0;exitDy=0;entryX=0.5;entryY=1;entryDx=0;entryDy=0;" parent="1" source="Pv3V8jOLx0eQlRmEm6TV-8" target="Pv3V8jOLx0eQlRmEm6TV-61" edge="1">
          <mxGeometry width="160" relative="1" as="geometry">
            <mxPoint x="9214" y="3669" as="sourcePoint" />
            <mxPoint x="9809" y="3682" as="targetPoint" />
            <Array as="points">
              <mxPoint x="9549.5" y="3719" />
              <mxPoint x="9809" y="3719" />
            </Array>
          </mxGeometry>
        </mxCell>
        <mxCell id="Pv3V8jOLx0eQlRmEm6TV-11" value="" style="endArrow=block;endSize=16;endFill=0;html=1;rounded=0;exitX=0.5;exitY=0;exitDx=0;exitDy=0;entryX=0.5;entryY=1;entryDx=0;entryDy=0;" parent="1" source="Pv3V8jOLx0eQlRmEm6TV-9" target="Pv3V8jOLx0eQlRmEm6TV-61" edge="1">
          <mxGeometry width="160" relative="1" as="geometry">
            <mxPoint x="9214" y="3669" as="sourcePoint" />
            <mxPoint x="9809" y="3682" as="targetPoint" />
            <Array as="points">
              <mxPoint x="9864" y="3719" />
              <mxPoint x="9809" y="3719" />
            </Array>
          </mxGeometry>
        </mxCell>
        <mxCell id="Pv3V8jOLx0eQlRmEm6TV-12" value="" style="endArrow=diamondThin;endFill=1;endSize=24;html=1;rounded=0;entryX=1;entryY=0.5;entryDx=0;entryDy=0;exitX=0;exitY=0.5;exitDx=0;exitDy=0;" parent="1" target="Pv3V8jOLx0eQlRmEm6TV-4" edge="1">
          <mxGeometry width="160" relative="1" as="geometry">
            <mxPoint x="9754" y="3657" as="sourcePoint" />
            <mxPoint x="9374" y="3669" as="targetPoint" />
          </mxGeometry>
        </mxCell>
        <mxCell id="Pv3V8jOLx0eQlRmEm6TV-13" value="&lt;font style=&quot;font-size: 15px;&quot;&gt;*&lt;/font&gt;" style="edgeLabel;html=1;align=center;verticalAlign=middle;resizable=0;points=[];" parent="Pv3V8jOLx0eQlRmEm6TV-12" connectable="0" vertex="1">
          <mxGeometry x="-0.8074" relative="1" as="geometry">
            <mxPoint y="-12" as="offset" />
          </mxGeometry>
        </mxCell>
        <mxCell id="Pv3V8jOLx0eQlRmEm6TV-14" value="" style="endArrow=block;endSize=16;endFill=0;html=1;rounded=0;entryX=0.5;entryY=1;entryDx=0;entryDy=0;exitX=0.5;exitY=0;exitDx=0;exitDy=0;" parent="1" source="Pv3V8jOLx0eQlRmEm6TV-27" target="Pv3V8jOLx0eQlRmEm6TV-8" edge="1">
          <mxGeometry width="160" relative="1" as="geometry">
            <mxPoint x="9359" y="3947" as="sourcePoint" />
            <mxPoint x="9469" y="3839" as="targetPoint" />
            <Array as="points">
              <mxPoint x="9455" y="3899" />
              <mxPoint x="9549" y="3899" />
            </Array>
          </mxGeometry>
        </mxCell>
        <mxCell id="Pv3V8jOLx0eQlRmEm6TV-15" value="" style="endArrow=block;endSize=16;endFill=0;html=1;rounded=0;entryX=0.5;entryY=1;entryDx=0;entryDy=0;exitX=0.5;exitY=0;exitDx=0;exitDy=0;" parent="1" source="Pv3V8jOLx0eQlRmEm6TV-28" target="Pv3V8jOLx0eQlRmEm6TV-8" edge="1">
          <mxGeometry width="160" relative="1" as="geometry">
            <mxPoint x="9719" y="3947" as="sourcePoint" />
            <mxPoint x="9469" y="3839" as="targetPoint" />
            <Array as="points">
              <mxPoint x="9634" y="3900" />
              <mxPoint x="9549" y="3899" />
            </Array>
          </mxGeometry>
        </mxCell>
        <mxCell id="Pv3V8jOLx0eQlRmEm6TV-16" value="" style="endArrow=none;html=1;rounded=0;entryX=0.79;entryY=0.846;entryDx=0;entryDy=0;entryPerimeter=0;exitX=0.04;exitY=0.846;exitDx=0;exitDy=0;exitPerimeter=0;" parent="1" edge="1">
          <mxGeometry width="50" height="50" relative="1" as="geometry">
            <mxPoint x="9286" y="4069" as="sourcePoint" />
            <mxPoint x="10030" y="4068" as="targetPoint" />
          </mxGeometry>
        </mxCell>
        <mxCell id="Pv3V8jOLx0eQlRmEm6TV-17" value="&lt;p style=&quot;margin:0px;margin-top:4px;text-align:center;&quot;&gt;&lt;/p&gt;&lt;div style=&quot;height:2px;&quot;&gt;&lt;/div&gt;&lt;div style=&quot;text-align: center;&quot;&gt;&lt;span style=&quot;font-weight: 700; background-color: initial;&quot;&gt;&amp;nbsp;BMW4er&lt;/span&gt;&lt;span style=&quot;background-color: initial;&quot;&gt;&lt;b&gt;:&lt;/b&gt;ECar&lt;/span&gt;&lt;/div&gt;&lt;hr size=&quot;1&quot; style=&quot;border-style:solid;&quot;&gt;&lt;div style=&quot;height:2px;&quot;&gt;&lt;div style=&quot;height: 2px;&quot;&gt;&amp;nbsp;maker:BMW&lt;/div&gt;&lt;div style=&quot;height: 2px;&quot;&gt;&lt;br&gt;&lt;/div&gt;&lt;div style=&quot;height: 2px;&quot;&gt;&lt;br&gt;&lt;/div&gt;&lt;div style=&quot;height: 2px;&quot;&gt;&lt;br&gt;&lt;/div&gt;&lt;div style=&quot;height: 2px;&quot;&gt;&lt;br&gt;&lt;/div&gt;&lt;div style=&quot;height: 2px;&quot;&gt;&lt;br&gt;&lt;/div&gt;&lt;div style=&quot;height: 2px;&quot;&gt;&lt;br&gt;&lt;/div&gt;&lt;div style=&quot;height: 2px;&quot;&gt;&lt;br&gt;&lt;/div&gt;&lt;div style=&quot;height: 2px;&quot;&gt;&lt;br&gt;&lt;/div&gt;&lt;div style=&quot;height: 2px;&quot;&gt;&amp;nbsp;protocol: EMS&lt;/div&gt;&lt;/div&gt;" style="verticalAlign=top;align=left;overflow=fill;html=1;whiteSpace=wrap;" parent="1" vertex="1">
          <mxGeometry x="9480" y="4240" width="180" height="80" as="geometry" />
        </mxCell>
        <mxCell id="Pv3V8jOLx0eQlRmEm6TV-18" value="&lt;p style=&quot;margin:0px;margin-top:4px;text-align:center;&quot;&gt;&lt;/p&gt;&lt;div style=&quot;height:2px;&quot;&gt;&lt;/div&gt;&lt;div style=&quot;text-align: center;&quot;&gt;&lt;span style=&quot;font-weight: 700; background-color: initial;&quot;&gt;&amp;nbsp;&lt;/span&gt;&lt;span style=&quot;background-color: initial; text-align: left;&quot;&gt;&lt;b&gt;eDrive50&lt;/b&gt;&lt;/span&gt;&lt;span style=&quot;background-color: initial;&quot;&gt;&lt;b&gt;:&lt;/b&gt;Engine&lt;/span&gt;&lt;/div&gt;&lt;hr size=&quot;1&quot; style=&quot;border-style:solid;&quot;&gt;&lt;div style=&quot;height:2px;&quot;&gt;&lt;div style=&quot;height: 2px;&quot;&gt;&amp;nbsp;&lt;span style=&quot;background-color: initial;&quot;&gt;maker:BMW&lt;/span&gt;&lt;/div&gt;&lt;div style=&quot;height: 2px;&quot;&gt;&lt;br&gt;&lt;/div&gt;&lt;div style=&quot;height: 2px;&quot;&gt;&lt;br&gt;&lt;/div&gt;&lt;div style=&quot;height: 2px;&quot;&gt;&lt;br&gt;&lt;/div&gt;&lt;div style=&quot;height: 2px;&quot;&gt;&lt;br&gt;&lt;/div&gt;&lt;div style=&quot;height: 2px;&quot;&gt;&lt;br&gt;&lt;/div&gt;&lt;div style=&quot;height: 2px;&quot;&gt;&lt;br&gt;&lt;/div&gt;&lt;div style=&quot;height: 2px;&quot;&gt;&lt;br&gt;&lt;/div&gt;&lt;div style=&quot;height: 2px;&quot;&gt;&lt;br&gt;&lt;/div&gt;&lt;div style=&quot;height: 2px;&quot;&gt;&lt;div style=&quot;height: 2px;&quot;&gt;&lt;span style=&quot;background-color: initial;&quot;&gt;&amp;nbsp;maxUsedPower: 60&lt;/span&gt;&lt;/div&gt;&lt;div style=&quot;height: 2px;&quot;&gt;&lt;span style=&quot;background-color: initial;&quot;&gt;&lt;br&gt;&lt;/span&gt;&lt;/div&gt;&lt;div style=&quot;height: 2px;&quot;&gt;&lt;span style=&quot;background-color: initial;&quot;&gt;&lt;br&gt;&lt;/span&gt;&lt;/div&gt;&lt;div style=&quot;height: 2px;&quot;&gt;&lt;span style=&quot;background-color: initial;&quot;&gt;&lt;br&gt;&lt;/span&gt;&lt;/div&gt;&lt;div style=&quot;height: 2px;&quot;&gt;&lt;span style=&quot;background-color: initial;&quot;&gt;&lt;br&gt;&lt;/span&gt;&lt;/div&gt;&lt;div style=&quot;height: 2px;&quot;&gt;&lt;span style=&quot;background-color: initial;&quot;&gt;&lt;br&gt;&lt;/span&gt;&lt;/div&gt;&lt;div style=&quot;height: 2px;&quot;&gt;&lt;span style=&quot;background-color: initial;&quot;&gt;&lt;br&gt;&lt;/span&gt;&lt;/div&gt;&lt;div style=&quot;height: 2px;&quot;&gt;&lt;span style=&quot;background-color: initial;&quot;&gt;&lt;br&gt;&lt;/span&gt;&lt;/div&gt;&lt;div style=&quot;height: 2px;&quot;&gt;&lt;span style=&quot;background-color: initial;&quot;&gt;&amp;nbsp;protocol:&amp;nbsp;&lt;/span&gt;&lt;span style=&quot;background-color: initial;&quot;&gt;EMS&lt;/span&gt;&lt;/div&gt;&lt;/div&gt;&lt;/div&gt;" style="verticalAlign=top;align=left;overflow=fill;html=1;whiteSpace=wrap;" parent="1" vertex="1">
          <mxGeometry x="9500" y="4087" width="140" height="93" as="geometry" />
        </mxCell>
        <mxCell id="Pv3V8jOLx0eQlRmEm6TV-19" value="&lt;p style=&quot;margin:0px;margin-top:4px;text-align:center;&quot;&gt;&lt;/p&gt;&lt;div style=&quot;height:2px;&quot;&gt;&lt;/div&gt;&lt;div style=&quot;text-align: center;&quot;&gt;&lt;span style=&quot;font-weight: 700; background-color: initial;&quot;&gt;&amp;nbsp;&lt;/span&gt;&lt;span style=&quot;font-weight: 700;&quot;&gt;E90&lt;/span&gt;&lt;span style=&quot;background-color: initial;&quot;&gt;&lt;b&gt;:&lt;/b&gt;EMulti-Media&lt;/span&gt;&lt;/div&gt;&lt;hr size=&quot;1&quot; style=&quot;border-style:solid;&quot;&gt;&lt;div style=&quot;height:2px;&quot;&gt;&lt;div style=&quot;height: 2px;&quot;&gt;&amp;nbsp;&lt;span style=&quot;background-color: initial;&quot;&gt;maker:BMW&lt;/span&gt;&lt;/div&gt;&lt;div style=&quot;height: 2px;&quot;&gt;&lt;br&gt;&lt;/div&gt;&lt;div style=&quot;height: 2px;&quot;&gt;&lt;br&gt;&lt;/div&gt;&lt;div style=&quot;height: 2px;&quot;&gt;&lt;br&gt;&lt;/div&gt;&lt;div style=&quot;height: 2px;&quot;&gt;&lt;br&gt;&lt;/div&gt;&lt;div style=&quot;height: 2px;&quot;&gt;&lt;br&gt;&lt;/div&gt;&lt;div style=&quot;height: 2px;&quot;&gt;&lt;br&gt;&lt;/div&gt;&lt;div style=&quot;height: 2px;&quot;&gt;&lt;br&gt;&lt;/div&gt;&lt;div style=&quot;height: 2px;&quot;&gt;&lt;br&gt;&lt;/div&gt;&lt;div style=&quot;height: 2px;&quot;&gt;&lt;div style=&quot;height: 2px;&quot;&gt;&lt;span style=&quot;background-color: initial;&quot;&gt;&amp;nbsp;maxUsedPower: 10&lt;/span&gt;&lt;/div&gt;&lt;div style=&quot;height: 2px;&quot;&gt;&lt;span style=&quot;background-color: initial;&quot;&gt;&lt;br&gt;&lt;/span&gt;&lt;/div&gt;&lt;div style=&quot;height: 2px;&quot;&gt;&lt;span style=&quot;background-color: initial;&quot;&gt;&lt;br&gt;&lt;/span&gt;&lt;/div&gt;&lt;div style=&quot;height: 2px;&quot;&gt;&lt;span style=&quot;background-color: initial;&quot;&gt;&lt;br&gt;&lt;/span&gt;&lt;/div&gt;&lt;div style=&quot;height: 2px;&quot;&gt;&lt;span style=&quot;background-color: initial;&quot;&gt;&lt;br&gt;&lt;/span&gt;&lt;/div&gt;&lt;div style=&quot;height: 2px;&quot;&gt;&lt;span style=&quot;background-color: initial;&quot;&gt;&lt;br&gt;&lt;/span&gt;&lt;/div&gt;&lt;div style=&quot;height: 2px;&quot;&gt;&lt;span style=&quot;background-color: initial;&quot;&gt;&lt;br&gt;&lt;/span&gt;&lt;/div&gt;&lt;div style=&quot;height: 2px;&quot;&gt;&lt;span style=&quot;background-color: initial;&quot;&gt;&lt;br&gt;&lt;/span&gt;&lt;/div&gt;&lt;div style=&quot;height: 2px;&quot;&gt;&lt;span style=&quot;background-color: initial;&quot;&gt;&lt;br&gt;&lt;/span&gt;&lt;/div&gt;&lt;div style=&quot;height: 2px;&quot;&gt;&lt;span style=&quot;background-color: initial;&quot;&gt;&amp;nbsp;protocol:&amp;nbsp;&lt;/span&gt;&lt;span style=&quot;background-color: initial;&quot;&gt;LIN&lt;/span&gt;&lt;br&gt;&lt;/div&gt;&lt;/div&gt;&lt;/div&gt;" style="verticalAlign=top;align=left;overflow=fill;html=1;whiteSpace=wrap;" parent="1" vertex="1">
          <mxGeometry x="9500" y="4390" width="140" height="92" as="geometry" />
        </mxCell>
        <mxCell id="Pv3V8jOLx0eQlRmEm6TV-20" value="&lt;p style=&quot;margin:0px;margin-top:4px;text-align:center;&quot;&gt;&lt;/p&gt;&lt;div style=&quot;height:2px;&quot;&gt;&lt;/div&gt;&lt;div style=&quot;text-align: center;&quot;&gt;&lt;span style=&quot;font-weight: 700; background-color: initial;&quot;&gt;&amp;nbsp;&lt;/span&gt;&lt;span style=&quot;font-weight: 700;&quot;&gt;BoughtInBP&lt;/span&gt;&lt;span style=&quot;background-color: initial;&quot;&gt;&lt;b&gt;:&lt;/b&gt;PoweSupplyingPart&lt;/span&gt;&lt;/div&gt;&lt;hr size=&quot;1&quot; style=&quot;border-style:solid;&quot;&gt;&lt;div style=&quot;height:2px;&quot;&gt;&lt;div style=&quot;height: 2px;&quot;&gt;&amp;nbsp;maker: ??&lt;/div&gt;&lt;div style=&quot;height: 2px;&quot;&gt;&lt;br&gt;&lt;/div&gt;&lt;div style=&quot;height: 2px;&quot;&gt;&lt;br&gt;&lt;/div&gt;&lt;div style=&quot;height: 2px;&quot;&gt;&lt;br&gt;&lt;/div&gt;&lt;div style=&quot;height: 2px;&quot;&gt;&lt;br&gt;&lt;/div&gt;&lt;div style=&quot;height: 2px;&quot;&gt;&lt;br&gt;&lt;/div&gt;&lt;div style=&quot;height: 2px;&quot;&gt;&lt;br&gt;&lt;/div&gt;&lt;div style=&quot;height: 2px;&quot;&gt;&amp;nbsp;&amp;nbsp;&lt;/div&gt;&lt;div style=&quot;height: 2px;&quot;&gt;&lt;br&gt;&lt;/div&gt;&lt;div style=&quot;height: 2px;&quot;&gt;&amp;nbsp;safetyLevel: ??&lt;br&gt;&lt;/div&gt;&lt;div style=&quot;height: 2px;&quot;&gt;&lt;br&gt;&lt;/div&gt;&lt;div style=&quot;height: 2px;&quot;&gt;&lt;br&gt;&lt;/div&gt;&lt;div style=&quot;height: 2px;&quot;&gt;&lt;br&gt;&lt;/div&gt;&lt;div style=&quot;height: 2px;&quot;&gt;&lt;br&gt;&lt;/div&gt;&lt;div style=&quot;height: 2px;&quot;&gt;&lt;br&gt;&lt;/div&gt;&lt;div style=&quot;height: 2px;&quot;&gt;&lt;br&gt;&lt;/div&gt;&lt;div style=&quot;height: 2px;&quot;&gt;&lt;br&gt;&lt;/div&gt;&lt;div style=&quot;height: 2px;&quot;&gt;&lt;br&gt;&lt;/div&gt;&lt;div style=&quot;height: 2px;&quot;&gt;&amp;nbsp;maxSuppliedPower: ??&lt;br&gt;&lt;/div&gt;&lt;div style=&quot;height: 2px;&quot;&gt;&lt;br&gt;&lt;/div&gt;&lt;div style=&quot;height: 2px;&quot;&gt;&lt;br&gt;&lt;/div&gt;&lt;div style=&quot;height: 2px;&quot;&gt;&lt;br&gt;&lt;/div&gt;&lt;div style=&quot;height: 2px;&quot;&gt;&lt;br&gt;&lt;/div&gt;&lt;div style=&quot;height: 2px;&quot;&gt;&lt;br&gt;&lt;/div&gt;&lt;div style=&quot;height: 2px;&quot;&gt;&lt;br&gt;&lt;/div&gt;&lt;div style=&quot;height: 2px;&quot;&gt;&lt;br&gt;&lt;/div&gt;&lt;div style=&quot;height: 2px;&quot;&gt;&lt;br&gt;&lt;/div&gt;&lt;div style=&quot;height: 2px;&quot;&gt;&amp;nbsp;protocol: ??&lt;br&gt;&lt;/div&gt;&lt;/div&gt;" style="verticalAlign=top;align=left;overflow=fill;html=1;whiteSpace=wrap;" parent="1" vertex="1">
          <mxGeometry x="9765" y="4226.5" width="205" height="106.5" as="geometry" />
        </mxCell>
        <mxCell id="Pv3V8jOLx0eQlRmEm6TV-21" value="" style="endArrow=diamondThin;endFill=1;endSize=24;html=1;rounded=0;entryX=0.5;entryY=0;entryDx=0;entryDy=0;exitX=0.5;exitY=1;exitDx=0;exitDy=0;" parent="1" source="Pv3V8jOLx0eQlRmEm6TV-18" target="Pv3V8jOLx0eQlRmEm6TV-17" edge="1">
          <mxGeometry width="160" relative="1" as="geometry">
            <mxPoint x="9400" y="4295" as="sourcePoint" />
            <mxPoint x="9510" y="4295" as="targetPoint" />
          </mxGeometry>
        </mxCell>
        <mxCell id="Pv3V8jOLx0eQlRmEm6TV-22" value="1" style="edgeLabel;html=1;align=center;verticalAlign=middle;resizable=0;points=[];" parent="Pv3V8jOLx0eQlRmEm6TV-21" connectable="0" vertex="1">
          <mxGeometry x="-0.7333" y="1" relative="1" as="geometry">
            <mxPoint x="5" as="offset" />
          </mxGeometry>
        </mxCell>
        <mxCell id="Pv3V8jOLx0eQlRmEm6TV-23" value="" style="endArrow=diamondThin;endFill=1;endSize=24;html=1;rounded=0;entryX=0.5;entryY=1;entryDx=0;entryDy=0;exitX=0.5;exitY=0;exitDx=0;exitDy=0;" parent="1" source="Pv3V8jOLx0eQlRmEm6TV-19" target="Pv3V8jOLx0eQlRmEm6TV-17" edge="1">
          <mxGeometry width="160" relative="1" as="geometry">
            <mxPoint x="9580" y="4169" as="sourcePoint" />
            <mxPoint x="9580" y="4259" as="targetPoint" />
          </mxGeometry>
        </mxCell>
        <mxCell id="Pv3V8jOLx0eQlRmEm6TV-24" value="1" style="edgeLabel;html=1;align=center;verticalAlign=middle;resizable=0;points=[];" parent="Pv3V8jOLx0eQlRmEm6TV-23" connectable="0" vertex="1">
          <mxGeometry x="-0.7303" y="2" relative="1" as="geometry">
            <mxPoint x="8" as="offset" />
          </mxGeometry>
        </mxCell>
        <mxCell id="Pv3V8jOLx0eQlRmEm6TV-25" value="" style="endArrow=diamondThin;endFill=1;endSize=24;html=1;rounded=0;entryX=1;entryY=0.5;entryDx=0;entryDy=0;exitX=0;exitY=0.5;exitDx=0;exitDy=0;" parent="1" source="Pv3V8jOLx0eQlRmEm6TV-20" target="Pv3V8jOLx0eQlRmEm6TV-17" edge="1">
          <mxGeometry width="160" relative="1" as="geometry">
            <mxPoint x="9580" y="4420" as="sourcePoint" />
            <mxPoint x="9580" y="4331" as="targetPoint" />
          </mxGeometry>
        </mxCell>
        <mxCell id="Pv3V8jOLx0eQlRmEm6TV-26" value="1" style="edgeLabel;html=1;align=center;verticalAlign=middle;resizable=0;points=[];" parent="Pv3V8jOLx0eQlRmEm6TV-25" connectable="0" vertex="1">
          <mxGeometry x="-0.8453" y="-1" relative="1" as="geometry">
            <mxPoint y="-8" as="offset" />
          </mxGeometry>
        </mxCell>
        <mxCell id="Pv3V8jOLx0eQlRmEm6TV-27" value="&lt;span style=&quot;font-weight: 700; background-color: initial;&quot;&gt;&amp;nbsp;Engine&lt;/span&gt;" style="html=1;whiteSpace=wrap;" parent="1" vertex="1">
          <mxGeometry x="9400" y="3956" width="110" height="50" as="geometry" />
        </mxCell>
        <mxCell id="Pv3V8jOLx0eQlRmEm6TV-28" value="&lt;span style=&quot;font-weight: 700; background-color: initial;&quot;&gt;&amp;nbsp;Multi-Media&lt;/span&gt;" style="html=1;whiteSpace=wrap;" parent="1" vertex="1">
          <mxGeometry x="9579" y="3955" width="110" height="50" as="geometry" />
        </mxCell>
        <mxCell id="Pv3V8jOLx0eQlRmEm6TV-29" value="BMW" style="text;html=1;align=center;verticalAlign=middle;whiteSpace=wrap;rounded=0;fontStyle=1;fontSize=23;" parent="1" vertex="1">
          <mxGeometry x="9590" y="3396" width="130" height="46" as="geometry" />
        </mxCell>
        <mxCell id="Pv3V8jOLx0eQlRmEm6TV-30" value="" style="rounded=1;whiteSpace=wrap;html=1;arcSize=15;" parent="1" vertex="1">
          <mxGeometry x="10098" y="3379" width="622" height="1111" as="geometry" />
        </mxCell>
        <mxCell id="Pv3V8jOLx0eQlRmEm6TV-31" value="" style="endArrow=none;html=1;rounded=0;entryX=0.79;entryY=0.846;entryDx=0;entryDy=0;entryPerimeter=0;exitX=0.04;exitY=0.846;exitDx=0;exitDy=0;exitPerimeter=0;" parent="1" edge="1">
          <mxGeometry width="50" height="50" relative="1" as="geometry">
            <mxPoint x="10142" y="3458.08" as="sourcePoint" />
            <mxPoint x="10680" y="3458" as="targetPoint" />
          </mxGeometry>
        </mxCell>
        <mxCell id="Pv3V8jOLx0eQlRmEm6TV-32" value="&lt;p style=&quot;margin:0px;margin-top:4px;text-align:center;&quot;&gt;&lt;/p&gt;&lt;div style=&quot;height:2px;&quot;&gt;&lt;/div&gt;&lt;span style=&quot;font-weight: 700;&quot;&gt;&lt;div style=&quot;text-align: center;&quot;&gt;&lt;span style=&quot;background-color: initial;&quot;&gt;&amp;nbsp;&lt;i&gt;Power Supplying Part&lt;/i&gt;&lt;/span&gt;&lt;/div&gt;&lt;/span&gt;&lt;hr size=&quot;1&quot; style=&quot;border-style:solid;&quot;&gt;&amp;nbsp;safetyLevel: Enum&lt;div style=&quot;height:2px;&quot;&gt;&lt;div style=&quot;height: 2px;&quot;&gt;&lt;div style=&quot;height: 2px;&quot;&gt;&amp;nbsp;&lt;/div&gt;&lt;div style=&quot;height: 2px;&quot;&gt;&lt;br&gt;&lt;/div&gt;&amp;nbsp;maxSuppliedPower: Float&lt;/div&gt;&lt;div style=&quot;height: 2px;&quot;&gt;&lt;br&gt;&lt;/div&gt;&lt;div style=&quot;height: 2px;&quot;&gt;&lt;br&gt;&lt;/div&gt;&lt;div style=&quot;height: 2px;&quot;&gt;&lt;br&gt;&lt;/div&gt;&lt;div style=&quot;height: 2px;&quot;&gt;&lt;br&gt;&lt;/div&gt;&lt;div style=&quot;height: 2px;&quot;&gt;&lt;br&gt;&lt;/div&gt;&lt;div style=&quot;height: 2px;&quot;&gt;&lt;br&gt;&lt;/div&gt;&lt;div style=&quot;height: 2px;&quot;&gt;&lt;br&gt;&lt;/div&gt;&lt;div style=&quot;height: 2px;&quot;&gt;&lt;br&gt;&lt;/div&gt;&lt;div style=&quot;height: 2px;&quot;&gt;&lt;br&gt;&lt;/div&gt;&lt;div style=&quot;height: 2px;&quot;&gt;&lt;br&gt;&lt;/div&gt;&lt;div style=&quot;height: 2px;&quot;&gt;&amp;nbsp;rawMaterial: String&lt;br&gt;&lt;/div&gt;&lt;/div&gt;" style="verticalAlign=top;align=left;overflow=fill;html=1;whiteSpace=wrap;" parent="1" vertex="1">
          <mxGeometry x="10329.75" y="3767" width="150" height="93" as="geometry" />
        </mxCell>
        <mxCell id="Pv3V8jOLx0eQlRmEm6TV-33" value="" style="endArrow=diamondThin;endFill=1;endSize=24;html=1;rounded=0;entryX=1;entryY=0.5;entryDx=0;entryDy=0;exitX=0;exitY=0.5;exitDx=0;exitDy=0;" parent="1" source="Pv3V8jOLx0eQlRmEm6TV-45" target="Pv3V8jOLx0eQlRmEm6TV-46" edge="1">
          <mxGeometry width="160" relative="1" as="geometry">
            <mxPoint x="10534.75" y="3982" as="sourcePoint" />
            <mxPoint x="10434.75" y="3982" as="targetPoint" />
          </mxGeometry>
        </mxCell>
        <mxCell id="Pv3V8jOLx0eQlRmEm6TV-34" value="*" style="edgeLabel;html=1;align=center;verticalAlign=middle;resizable=0;points=[];fontSize=18;" parent="Pv3V8jOLx0eQlRmEm6TV-33" connectable="0" vertex="1">
          <mxGeometry x="-0.7948" y="1" relative="1" as="geometry">
            <mxPoint y="-15" as="offset" />
          </mxGeometry>
        </mxCell>
        <mxCell id="Pv3V8jOLx0eQlRmEm6TV-35" value="" style="endArrow=block;endSize=16;endFill=0;html=1;rounded=0;entryX=0.5;entryY=1;entryDx=0;entryDy=0;exitX=0.5;exitY=0;exitDx=0;exitDy=0;" parent="1" source="Pv3V8jOLx0eQlRmEm6TV-46" target="Pv3V8jOLx0eQlRmEm6TV-32" edge="1">
          <mxGeometry width="160" relative="1" as="geometry">
            <mxPoint x="10364.75" y="3946" as="sourcePoint" />
            <mxPoint x="9914.75" y="3838" as="targetPoint" />
            <Array as="points">
              <mxPoint x="10249.75" y="3898" />
              <mxPoint x="10404.75" y="3898" />
            </Array>
          </mxGeometry>
        </mxCell>
        <mxCell id="Pv3V8jOLx0eQlRmEm6TV-36" value="" style="endArrow=block;endSize=16;endFill=0;html=1;rounded=0;entryX=0.5;entryY=1;entryDx=0;entryDy=0;" parent="1" target="Pv3V8jOLx0eQlRmEm6TV-32" edge="1">
          <mxGeometry width="160" relative="1" as="geometry">
            <mxPoint x="10534.75" y="3960" as="sourcePoint" />
            <mxPoint x="9914.75" y="3838" as="targetPoint" />
            <Array as="points">
              <mxPoint x="10534.75" y="3898" />
              <mxPoint x="10404.75" y="3898" />
            </Array>
          </mxGeometry>
        </mxCell>
        <mxCell id="Pv3V8jOLx0eQlRmEm6TV-37" value="" style="endArrow=none;html=1;rounded=0;entryX=0.79;entryY=0.846;entryDx=0;entryDy=0;entryPerimeter=0;exitX=0.04;exitY=0.846;exitDx=0;exitDy=0;exitPerimeter=0;" parent="1" edge="1">
          <mxGeometry width="50" height="50" relative="1" as="geometry">
            <mxPoint x="10143" y="4068.08" as="sourcePoint" />
            <mxPoint x="10680" y="4068" as="targetPoint" />
          </mxGeometry>
        </mxCell>
        <mxCell id="Pv3V8jOLx0eQlRmEm6TV-38" value="" style="edgeStyle=orthogonalEdgeStyle;rounded=0;orthogonalLoop=1;jettySize=auto;html=1;" parent="1" source="Pv3V8jOLx0eQlRmEm6TV-39" target="Pv3V8jOLx0eQlRmEm6TV-40" edge="1">
          <mxGeometry relative="1" as="geometry" />
        </mxCell>
        <mxCell id="Pv3V8jOLx0eQlRmEm6TV-39" value="&lt;p style=&quot;margin:0px;margin-top:4px;text-align:center;&quot;&gt;&lt;/p&gt;&lt;div style=&quot;height:2px;&quot;&gt;&lt;/div&gt;&lt;div style=&quot;text-align: center;&quot;&gt;&lt;span style=&quot;font-weight: 700; background-color: initial;&quot;&gt;&amp;nbsp;&lt;/span&gt;&lt;span style=&quot;font-weight: 700;&quot;&gt;HV-AX48&lt;/span&gt;&lt;span style=&quot;background-color: initial;&quot;&gt;&lt;b&gt;:&lt;/b&gt;Battery&lt;/span&gt;&lt;/div&gt;&lt;hr size=&quot;1&quot; style=&quot;border-style:solid;&quot;&gt;&lt;div style=&quot;height:2px;&quot;&gt;&lt;div style=&quot;height: 2px;&quot;&gt;&amp;nbsp;&lt;span style=&quot;background-color: initial;&quot;&gt;maker:BOSCH&lt;/span&gt;&lt;/div&gt;&lt;div style=&quot;height: 2px;&quot;&gt;&lt;br&gt;&lt;/div&gt;&lt;div style=&quot;height: 2px;&quot;&gt;&lt;br&gt;&lt;/div&gt;&lt;div style=&quot;height: 2px;&quot;&gt;&lt;br&gt;&lt;/div&gt;&lt;div style=&quot;height: 2px;&quot;&gt;&lt;br&gt;&lt;/div&gt;&lt;div style=&quot;height: 2px;&quot;&gt;&lt;br&gt;&lt;/div&gt;&lt;div style=&quot;height: 2px;&quot;&gt;&lt;br&gt;&lt;/div&gt;&lt;div style=&quot;height: 2px;&quot;&gt;&lt;br&gt;&lt;/div&gt;&lt;div style=&quot;height: 2px;&quot;&gt;&lt;br&gt;&lt;/div&gt;&lt;div style=&quot;height: 2px;&quot;&gt;&lt;div style=&quot;height: 2px;&quot;&gt;&lt;span style=&quot;background-color: initial;&quot;&gt;&amp;nbsp;maxSuppliedPower: 48&lt;/span&gt;&lt;/div&gt;&lt;/div&gt;&lt;/div&gt;" style="verticalAlign=top;align=left;overflow=fill;html=1;whiteSpace=wrap;" parent="1" vertex="1">
          <mxGeometry x="10329" y="4328" width="160" height="80" as="geometry" />
        </mxCell>
        <mxCell id="Pv3V8jOLx0eQlRmEm6TV-40" value="&lt;p style=&quot;margin:0px;margin-top:4px;text-align:center;&quot;&gt;&lt;/p&gt;&lt;div style=&quot;height:2px;&quot;&gt;&lt;/div&gt;&lt;div style=&quot;text-align: center;&quot;&gt;&lt;span style=&quot;font-weight: 700; background-color: initial;&quot;&gt;&amp;nbsp;&lt;/span&gt;&lt;span style=&quot;font-weight: 700;&quot;&gt;BP-XLi-Sports&lt;/span&gt;&lt;span style=&quot;background-color: initial;&quot;&gt;&lt;b&gt;:&lt;/b&gt;Battery Pack&lt;/span&gt;&lt;/div&gt;&lt;hr size=&quot;1&quot; style=&quot;border-style:solid;&quot;&gt;&lt;div style=&quot;height:2px;&quot;&gt;&lt;div style=&quot;height: 2px;&quot;&gt;&amp;nbsp;maker: BOSCH&lt;/div&gt;&lt;div style=&quot;height: 2px;&quot;&gt;&lt;br&gt;&lt;/div&gt;&lt;div style=&quot;height: 2px;&quot;&gt;&lt;br&gt;&lt;/div&gt;&lt;div style=&quot;height: 2px;&quot;&gt;&lt;br&gt;&lt;/div&gt;&lt;div style=&quot;height: 2px;&quot;&gt;&lt;br&gt;&lt;/div&gt;&lt;div style=&quot;height: 2px;&quot;&gt;&lt;br&gt;&lt;/div&gt;&lt;div style=&quot;height: 2px;&quot;&gt;&lt;br&gt;&lt;/div&gt;&lt;div style=&quot;height: 2px;&quot;&gt;&lt;br&gt;&lt;/div&gt;&lt;div style=&quot;height: 2px;&quot;&gt;&lt;br&gt;&lt;/div&gt;&lt;div style=&quot;height: 2px;&quot;&gt;&amp;nbsp;safetyLevel: ASIL_C&lt;br&gt;&lt;/div&gt;&lt;div style=&quot;height: 2px;&quot;&gt;&lt;br&gt;&lt;/div&gt;&lt;div style=&quot;height: 2px;&quot;&gt;&lt;br&gt;&lt;/div&gt;&lt;div style=&quot;height: 2px;&quot;&gt;&lt;br&gt;&lt;/div&gt;&lt;div style=&quot;height: 2px;&quot;&gt;&lt;br&gt;&lt;/div&gt;&lt;div style=&quot;height: 2px;&quot;&gt;&lt;br&gt;&lt;/div&gt;&lt;div style=&quot;height: 2px;&quot;&gt;&lt;br&gt;&lt;/div&gt;&lt;div style=&quot;height: 2px;&quot;&gt;&lt;br&gt;&lt;/div&gt;&lt;div style=&quot;height: 2px;&quot;&gt;&lt;br&gt;&lt;/div&gt;&lt;div style=&quot;height: 2px;&quot;&gt;&lt;br&gt;&lt;/div&gt;&lt;div style=&quot;height: 2px;&quot;&gt;&amp;nbsp;maxSuppliedPower: 96&lt;br&gt;&lt;/div&gt;&lt;div style=&quot;height: 2px;&quot;&gt;&lt;br&gt;&lt;/div&gt;&lt;div style=&quot;height: 2px;&quot;&gt;&lt;br&gt;&lt;/div&gt;&lt;div style=&quot;height: 2px;&quot;&gt;&lt;br&gt;&lt;/div&gt;&lt;div style=&quot;height: 2px;&quot;&gt;&lt;br&gt;&lt;/div&gt;&lt;div style=&quot;height: 2px;&quot;&gt;&lt;br&gt;&lt;/div&gt;&lt;div style=&quot;height: 2px;&quot;&gt;&lt;br&gt;&lt;/div&gt;&lt;div style=&quot;height: 2px;&quot;&gt;&lt;br&gt;&lt;/div&gt;&lt;div style=&quot;height: 2px;&quot;&gt;&lt;br&gt;&lt;/div&gt;&lt;div style=&quot;height: 2px;&quot;&gt;&lt;span style=&quot;background-color: initial;&quot;&gt;&amp;nbsp;protocol:&amp;nbsp;&lt;/span&gt;&lt;span style=&quot;background-color: initial;&quot;&gt;BMS&lt;/span&gt;&lt;br&gt;&lt;/div&gt;&lt;div style=&quot;height: 2px;&quot;&gt;&lt;span style=&quot;background-color: initial;&quot;&gt;&lt;br&gt;&lt;/span&gt;&lt;/div&gt;&lt;div style=&quot;height: 2px;&quot;&gt;&lt;span style=&quot;background-color: initial;&quot;&gt;&lt;br&gt;&lt;/span&gt;&lt;/div&gt;&lt;div style=&quot;height: 2px;&quot;&gt;&lt;span style=&quot;background-color: initial;&quot;&gt;&lt;br&gt;&lt;/span&gt;&lt;/div&gt;&lt;div style=&quot;height: 2px;&quot;&gt;&lt;span style=&quot;background-color: initial;&quot;&gt;&lt;br&gt;&lt;/span&gt;&lt;/div&gt;&lt;div style=&quot;height: 2px;&quot;&gt;&lt;span style=&quot;background-color: initial;&quot;&gt;&lt;br&gt;&lt;/span&gt;&lt;/div&gt;&lt;div style=&quot;height: 2px;&quot;&gt;&lt;span style=&quot;background-color: initial;&quot;&gt;&lt;br&gt;&lt;/span&gt;&lt;/div&gt;&lt;div style=&quot;height: 2px;&quot;&gt;&lt;span style=&quot;background-color: initial;&quot;&gt;&lt;br&gt;&lt;/span&gt;&lt;/div&gt;&lt;div style=&quot;height: 2px;&quot;&gt;&lt;br&gt;&lt;/div&gt;&lt;div style=&quot;height: 2px;&quot;&gt;&amp;nbsp;&lt;span style=&quot;background-color: initial;&quot;&gt;rawMaterial:&amp;nbsp;&lt;/span&gt;&lt;span style=&quot;background-color: initial;&quot;&gt;Lithium&lt;/span&gt;&lt;/div&gt;&lt;/div&gt;" style="verticalAlign=top;align=left;overflow=fill;html=1;whiteSpace=wrap;" parent="1" vertex="1">
          <mxGeometry x="10299" y="4120" width="220" height="130" as="geometry" />
        </mxCell>
        <mxCell id="Pv3V8jOLx0eQlRmEm6TV-43" value="" style="endArrow=diamondThin;endFill=1;endSize=24;html=1;rounded=0;entryX=0.5;entryY=1;entryDx=0;entryDy=0;exitX=0.5;exitY=0;exitDx=0;exitDy=0;" parent="1" source="Pv3V8jOLx0eQlRmEm6TV-39" target="Pv3V8jOLx0eQlRmEm6TV-40" edge="1">
          <mxGeometry width="160" relative="1" as="geometry">
            <mxPoint x="10018.5" y="4319" as="sourcePoint" />
            <mxPoint x="10018.5" y="4230" as="targetPoint" />
            <Array as="points" />
          </mxGeometry>
        </mxCell>
        <mxCell id="Pv3V8jOLx0eQlRmEm6TV-44" value="2" style="edgeLabel;html=1;align=center;verticalAlign=middle;resizable=0;points=[];" parent="Pv3V8jOLx0eQlRmEm6TV-43" connectable="0" vertex="1">
          <mxGeometry x="-0.697" y="1" relative="1" as="geometry">
            <mxPoint x="8" as="offset" />
          </mxGeometry>
        </mxCell>
        <mxCell id="Pv3V8jOLx0eQlRmEm6TV-45" value="&lt;span style=&quot;font-weight: 700; background-color: initial;&quot;&gt;Battery&lt;/span&gt;" style="html=1;whiteSpace=wrap;" parent="1" vertex="1">
          <mxGeometry x="10479.25" y="3955" width="110" height="50" as="geometry" />
        </mxCell>
        <mxCell id="Pv3V8jOLx0eQlRmEm6TV-46" value="&lt;span style=&quot;font-weight: 700; background-color: initial;&quot;&gt;Battery Pack&lt;/span&gt;" style="html=1;whiteSpace=wrap;" parent="1" vertex="1">
          <mxGeometry x="10194.75" y="3956" width="110" height="50" as="geometry" />
        </mxCell>
        <mxCell id="Pv3V8jOLx0eQlRmEm6TV-47" value="Bosch" style="text;html=1;align=center;verticalAlign=middle;whiteSpace=wrap;rounded=0;fontStyle=1;fontSize=23;" parent="1" vertex="1">
          <mxGeometry x="10344" y="3396" width="130" height="46" as="geometry" />
        </mxCell>
        <mxCell id="Pv3V8jOLx0eQlRmEm6TV-48" value="V-SUM (Asymmetric)" style="text;html=1;align=center;verticalAlign=middle;whiteSpace=wrap;rounded=0;fontStyle=1;fontSize=23;" parent="1" vertex="1">
          <mxGeometry x="9912.5" y="3300" width="135" height="46" as="geometry" />
        </mxCell>
        <mxCell id="Pv3V8jOLx0eQlRmEm6TV-54" value="&lt;p style=&quot;margin:0px;margin-top:4px;text-align:center;&quot;&gt;&lt;/p&gt;&lt;div style=&quot;height:2px;&quot;&gt;&lt;/div&gt;&lt;span style=&quot;font-weight: 700;&quot;&gt;&lt;div style=&quot;text-align: center;&quot;&gt;&lt;span style=&quot;background-color: initial;&quot;&gt;&amp;nbsp;&lt;i&gt;Product&lt;/i&gt;&lt;/span&gt;&lt;/div&gt;&lt;/span&gt;&lt;hr size=&quot;1&quot; style=&quot;border-style:solid;&quot;&gt;&lt;div style=&quot;height:2px;&quot;&gt;&lt;div style=&quot;height: 2px;&quot;&gt;&amp;nbsp;maker: String&lt;/div&gt;&lt;div style=&quot;height: 2px;&quot;&gt;&lt;br&gt;&lt;/div&gt;&lt;div style=&quot;height: 2px;&quot;&gt;&lt;br&gt;&lt;/div&gt;&lt;div style=&quot;height: 2px;&quot;&gt;&lt;br&gt;&lt;/div&gt;&lt;div style=&quot;height: 2px;&quot;&gt;&lt;br&gt;&lt;/div&gt;&lt;div style=&quot;height: 2px;&quot;&gt;&lt;br&gt;&lt;/div&gt;&lt;div style=&quot;height: 2px;&quot;&gt;&lt;br&gt;&lt;/div&gt;&lt;div style=&quot;height: 2px;&quot;&gt;&lt;br&gt;&lt;/div&gt;&lt;div style=&quot;height: 2px;&quot;&gt;&lt;br&gt;&lt;/div&gt;&lt;div style=&quot;height: 2px;&quot;&gt;&amp;nbsp;&lt;span style=&quot;background-color: initial;&quot;&gt;protocol: String&lt;/span&gt;&lt;/div&gt;&lt;/div&gt;" style="verticalAlign=top;align=left;overflow=fill;html=1;whiteSpace=wrap;" parent="1" vertex="1">
          <mxGeometry x="10334" y="3560" width="140" height="74" as="geometry" />
        </mxCell>
        <mxCell id="Pv3V8jOLx0eQlRmEm6TV-59" value="" style="endArrow=block;endSize=16;endFill=0;html=1;rounded=0;entryX=0.5;entryY=1;entryDx=0;entryDy=0;exitX=0.5;exitY=0;exitDx=0;exitDy=0;" parent="1" source="Pv3V8jOLx0eQlRmEm6TV-32" target="Pv3V8jOLx0eQlRmEm6TV-54" edge="1">
          <mxGeometry width="160" relative="1" as="geometry">
            <mxPoint x="9900" y="3960" as="sourcePoint" />
            <mxPoint x="10405" y="3688.999999999999" as="targetPoint" />
            <Array as="points" />
          </mxGeometry>
        </mxCell>
        <mxCell id="Pv3V8jOLx0eQlRmEm6TV-60" value="&lt;div&gt;&lt;b&gt;EMS:&amp;nbsp;&lt;/b&gt;&lt;span style=&quot;background-color: initial;&quot;&gt;Energy Management Systems (EMS) Protocols&lt;/span&gt;&lt;/div&gt;&lt;div style=&quot;font-weight: bold;&quot;&gt;&lt;b&gt;BMS:&amp;nbsp;&lt;/b&gt;&lt;span style=&quot;background-color: initial; font-weight: normal;&quot;&gt;Battery Management System (BMS) Protocols&lt;/span&gt;&lt;/div&gt;&lt;div style=&quot;&quot;&gt;&lt;b&gt;LIN:&amp;nbsp;&lt;/b&gt;Local Interconnect Network&lt;span style=&quot;font-weight: normal; background-color: initial;&quot;&gt;&lt;br&gt;&lt;/span&gt;&lt;/div&gt;&lt;div style=&quot;&quot;&gt;&lt;b style=&quot;background-color: initial;&quot;&gt;-------------------------------------------------------------------------&lt;/b&gt;&lt;br&gt;&lt;/div&gt;&lt;b&gt;Consistency Preservation Rules (CPR):&amp;nbsp;&lt;/b&gt;&lt;div&gt;- BatteryPack with the name &quot;BoughtInBP&quot; in model &quot;BMW&quot; is linked to BatteryPack with the name &quot;BP-XLi-Sports&quot; in model &quot;Bosch&quot;&lt;div&gt;&lt;br&gt;&lt;/div&gt;&lt;div&gt;&lt;b&gt;Consistency Relations:&amp;nbsp;&lt;/b&gt;&lt;/div&gt;&lt;div&gt;- CR1: For all linked BatteryPacks: &quot;sum of all connected maxUsedPower must be less than the sum of all connected maxSuppliedPower&quot;&lt;div&gt;- CR2:&amp;nbsp;&lt;span style=&quot;background-color: initial;&quot;&gt;For all linked BatteryPacks:&lt;/span&gt;&lt;span style=&quot;background-color: initial;&quot;&gt;&amp;nbsp;&quot;their annotated safety level must be equal&quot;&lt;/span&gt;&lt;/div&gt;&lt;/div&gt;&lt;div&gt;&lt;span style=&quot;background-color: initial;&quot;&gt;- CR3: Both Power consumers and Supplier use a compatible protocol&lt;/span&gt;&lt;/div&gt;&lt;/div&gt;&lt;div&gt;&lt;br&gt;&lt;/div&gt;&lt;div&gt;&lt;b&gt;Confidential data/information:&lt;/b&gt;&lt;br&gt;&lt;/div&gt;&lt;div&gt;&lt;div&gt;- Related to consistency relations: possible power attributes of single elements/devices (but not of the overall sums!)&lt;/div&gt;&lt;div&gt;- Optional: we could also declare the safety Level as confidential to make the check more difficult, but this might not be really realistic. In addition, we could also add additional internal values, like costs, as confidential data, which would make more sense in a real scenario (instead of hidden maxSuppliedPower), but then the example would not be minimal anymore.&amp;nbsp;&lt;/div&gt;&lt;/div&gt;&lt;div&gt;&lt;b&gt;&lt;br&gt;&lt;/b&gt;&lt;/div&gt;&lt;div&gt;&lt;b&gt;Possible stages of extension&lt;/b&gt; (the example above would be v0 - minimal for the purpose of a simple consistency check on basic data):&lt;/div&gt;&lt;div&gt;- v1: Add a third party, e.g., a second supplier for a part of the MultiMedia. Getting (confidential) data from three parties (the maxUsedPower of the new MultiMedia part from the third party) might be more difficult then only a direct check between two parties. This would still be minimal in regard to the purpose of having a three-party-relation.&lt;/div&gt;&lt;div&gt;- v2: Add behavior-based relations that need a simulation approach for checking. This would still be minimal in regard to the purpose if having a behavior-based relation.&lt;/div&gt;&lt;div&gt;&lt;br&gt;&lt;/div&gt;" style="text;html=1;align=left;verticalAlign=top;whiteSpace=wrap;rounded=0;fontSize=16;fillColor=#f5f5f5;fontColor=#333333;strokeColor=#666666;" parent="1" vertex="1">
          <mxGeometry x="9199" y="4599" width="1560" height="421" as="geometry" />
        </mxCell>
        <mxCell id="Pv3V8jOLx0eQlRmEm6TV-61" value="&lt;b&gt;&lt;i&gt;CarPart&lt;/i&gt;&lt;/b&gt;" style="html=1;whiteSpace=wrap;" parent="1" vertex="1">
          <mxGeometry x="9754" y="3632" width="110" height="50" as="geometry" />
        </mxCell>
        <mxCell id="Pv3V8jOLx0eQlRmEm6TV-62" value="&lt;b style=&quot;font-size: 15px;&quot;&gt;&lt;font color=&quot;#ff9933&quot; style=&quot;font-size: 15px;&quot;&gt;Metamodel level&lt;/font&gt;&lt;/b&gt;" style="text;html=1;align=center;verticalAlign=middle;whiteSpace=wrap;rounded=0;rotation=-90;fontSize=15;" parent="1" vertex="1">
          <mxGeometry x="9175" y="3753" width="120" height="30" as="geometry" />
        </mxCell>
        <mxCell id="Pv3V8jOLx0eQlRmEm6TV-63" value="&lt;b style=&quot;font-size: 15px;&quot;&gt;&lt;font color=&quot;#ff9933&quot; style=&quot;font-size: 15px;&quot;&gt;Model (instance) level&lt;/font&gt;&lt;/b&gt;" style="text;html=1;align=center;verticalAlign=middle;whiteSpace=wrap;rounded=0;rotation=-90;fontSize=15;" parent="1" vertex="1">
          <mxGeometry x="9147.5" y="4215.5" width="165" height="30" as="geometry" />
        </mxCell>
      </root>
    </mxGraphModel>
  </diagram>
</mxfile>
